<?xml version="1.0" encoding="UTF-8"?>
<svg version="1.1" xmlns="http://www.w3.org/2000/svg" width="848" height="294">
<path d="M0 0 C0.83402344 -0.0309375 1.66804688 -0.061875 2.52734375 -0.09375 C6.11550324 0.74662017 7.92370417 2.6244855 10.0625 5.5 C12.05702417 9.2926672 13.6688774 13.22458383 15.29296875 17.1875 C15.76946365 18.32276123 16.24595856 19.45802246 16.7368927 20.62768555 C18.25283682 24.24708201 19.75155624 27.87332829 21.25 31.5 C22.26906333 33.94057169 23.28923367 36.38068147 24.31054688 38.8203125 C26.91042189 45.04028253 29.50519522 51.26238267 32.0625 57.5 C32.43462112 58.35489014 32.80674225 59.20978027 33.19013977 60.09057617 C34.34626273 63.28374122 34.19449885 66.13402938 34.0625 69.5 C31.3315748 70.8654626 29.15683959 70.63472498 26.09985352 70.64526367 C24.84838028 70.65164352 23.59690704 70.65802338 22.30751038 70.66459656 C20.93547606 70.66612517 19.56344123 70.66723916 18.19140625 70.66796875 C16.78897568 70.671181 15.38654546 70.67454504 13.9841156 70.67805481 C11.04270653 70.684047 8.10132685 70.68589461 5.15991211 70.68530273 C1.38913373 70.68520109 -2.38145645 70.69885504 -6.15219021 70.71607494 C-9.04922859 70.7271883 -11.94622137 70.72922215 -14.84327888 70.72869301 C-16.23355826 70.72987406 -17.62383878 70.73430287 -19.01409721 70.74202538 C-20.95785986 70.75181155 -22.90167755 70.74768652 -24.84545898 70.74291992 C-25.95195297 70.74434494 -27.05844696 70.74576996 -28.19847107 70.74723816 C-30.9375 70.5 -30.9375 70.5 -33.9375 68.5 C-34.55401335 64.62477324 -34.06652711 62.74849666 -32.25 59.25 C-29.69601871 56.21283306 -28.67927973 55.58731159 -24.9375 54.5 C-22.04177801 54.33414292 -19.24759798 54.26658499 -16.35546875 54.3046875 C-15.54128983 54.3075174 -14.7271109 54.31034729 -13.88825989 54.31326294 C-11.300354 54.32441416 -8.71280042 54.34950917 -6.125 54.375 C-4.36523939 54.38503635 -2.60547333 54.39416106 -0.84570312 54.40234375 C3.45716598 54.4243369 7.75977336 54.45883164 12.0625 54.5 C11.12405988 51.97593273 10.18367118 49.45261943 9.2421875 46.9296875 C8.98010498 46.22416748 8.71802246 45.51864746 8.44799805 44.79174805 C6.42573809 39.37932038 4.24242927 34.05996254 1.9453125 28.7578125 C1.0625 26.5 1.0625 26.5 1.0625 24.5 C0.4025 24.5 -0.2575 24.5 -0.9375 24.5 C-1.08445312 25.05945313 -1.23140625 25.61890625 -1.3828125 26.1953125 C-2.87997671 31.54724433 -4.705539 36.7337992 -6.8125 41.875 C-7.28429687 43.03773438 -7.75609375 44.20046875 -8.2421875 45.3984375 C-10.40755141 49.3599558 -12.73968548 51.76336986 -17.0703125 53.21484375 C-22.4936366 53.82097997 -22.4936366 53.82097997 -24.67651367 52.24243164 C-26.55892029 49.64132108 -26.08435351 47.32645885 -25.62744141 44.26904297 C-24.17458922 38.43809835 -21.5824403 33.02612941 -19.125 27.5625 C-18.58411612 26.33970972 -18.04439516 25.11640436 -17.50585938 23.89257812 C-16.46315044 21.52371785 -15.41497857 19.15725322 -14.36083984 16.79345703 C-12.75346855 13.0741708 -11.32727771 9.30861197 -9.9855957 5.48608398 C-7.74911573 1.24807686 -4.60874689 0.05681044 0 0 Z " fill="#5672F8" transform="translate(333.9375,105.5)"/>
<path d="M0 0 C2.16664801 -0.004381 4.33126965 -0.04074626 6.49755859 -0.07861328 C7.87906207 -0.08448069 9.26057519 -0.08845059 10.64208984 -0.09033203 C11.89441406 -0.0985498 13.14673828 -0.10676758 14.43701172 -0.11523438 C18.22634736 0.45362334 19.38544816 1.36143911 21.67333984 4.37060547 C22.20458984 6.37060547 22.20458984 6.37060547 22.17333984 8.37060547 C22.18365234 9.03060547 22.19396484 9.69060547 22.20458984 10.37060547 C21.4186609 13.32939678 20.04736751 14.46051289 17.67333984 16.37060547 C14.43896484 16.97998047 14.43896484 16.97998047 10.92333984 17.12060547 C9.75287109 17.17732422 8.58240234 17.23404297 7.37646484 17.29248047 C6.48443359 17.31826172 5.59240234 17.34404297 4.67333984 17.37060547 C4.97626953 18.11221924 5.27919922 18.85383301 5.59130859 19.61791992 C6.9573717 22.97081674 8.31544136 26.32689422 9.67333984 29.68310547 C10.15029297 30.85035156 10.62724609 32.01759766 11.11865234 33.22021484 C11.56982422 34.33847656 12.02099609 35.45673828 12.48583984 36.60888672 C12.90478516 37.64053955 13.32373047 38.67219238 13.75537109 39.73510742 C14.67333984 42.37060547 14.67333984 42.37060547 14.67333984 45.37060547 C15.33333984 45.37060547 15.99333984 45.37060547 16.67333984 45.37060547 C16.82609375 44.80897705 16.97884766 44.24734863 17.13623047 43.66870117 C19.29748818 36.07918597 22.17366538 28.85041752 25.17333984 21.55810547 C25.65931641 20.35734375 26.14529297 19.15658203 26.64599609 17.91943359 C32.78161157 2.91476086 32.78161157 2.91476086 38.67333984 0.37060547 C44.83751895 -0.04730498 44.83751895 -0.04730498 47.67333984 1.37060547 C49.39704365 5.98786223 47.88314338 9.61104047 46.21240234 13.99169922 C45.94037994 14.73149521 45.66835754 15.4712912 45.38809204 16.23350525 C42.42114873 24.22165069 39.25137605 32.13265105 36.03173828 40.02172852 C35.03707323 42.46073217 34.05017732 44.90278282 33.06396484 47.34521484 C32.42118876 48.9280812 31.77797569 50.51077019 31.13427734 52.09326172 C30.84563812 52.80797134 30.5569989 53.52268097 30.25961304 54.25904846 C28.80872273 57.80192923 27.28549295 61.30364504 25.64453125 64.76293945 C25.18670761 65.72984962 25.18670761 65.72984962 24.71963501 66.71629333 C23.18509237 69.14258048 21.31160029 70.19012358 18.58740234 70.96044922 C17.83201172 71.07517578 17.07662109 71.18990234 16.29833984 71.30810547 C15.54810547 71.44087891 14.79787109 71.57365234 14.02490234 71.71044922 C11.17820361 71.29904924 9.80633023 70.22260287 7.89697266 68.10424805 C5.33714389 64.47748346 3.85295836 60.35489625 2.23583984 56.24560547 C1.82479004 55.22748779 1.41374023 54.20937012 0.99023438 53.16040039 C0.0672609 50.86949053 -0.85002931 48.57628568 -1.76269531 46.28125 C-3.19039954 42.69764671 -4.64947469 39.12736452 -6.11335754 35.55841064 C-7.41200569 32.38949699 -8.70230099 29.21722244 -9.99099731 26.04425049 C-10.62958913 24.47470098 -11.27058817 22.90612866 -11.91403198 21.33856201 C-12.82314758 19.11952684 -13.72076584 16.89616332 -14.61572266 14.67138672 C-14.89022751 14.00771591 -15.16473236 13.3440451 -15.44755554 12.66026306 C-16.86558886 9.09935357 -17.64497541 6.2101112 -17.32666016 2.37060547 C-12.15139742 -0.87607845 -5.89687546 -0.00133868 0 0 Z " fill="#5672F5" transform="translate(207.32666015625,105.62939453125)"/>
<path d="M0 0 C0.68468353 -0.00287018 1.36936707 -0.00574036 2.07479858 -0.00869751 C3.52562281 -0.01073828 4.97647455 -0.00520736 6.42724609 0.00732422 C8.62011476 0.02323204 10.81109866 0.00755542 13.00390625 -0.01171875 C24.84820201 -0.02945782 33.45072976 1.62727949 42.5859375 9.6484375 C49.33075387 17.25797392 53.8638599 26.74199367 53.37109375 37.17578125 C51.75560252 47.50403417 47.96165334 57.17479229 40.0859375 64.2734375 C32.81555647 69.31819168 26.03748088 70.55244944 17.38671875 70.56640625 C16.30574165 70.57139885 16.30574165 70.57139885 15.20292664 70.57649231 C13.68761836 70.58153406 12.17229908 70.58390149 10.65698242 70.58374023 C8.33298795 70.58594029 6.00945835 70.60416126 3.68554688 70.62304688 C2.21093912 70.62597862 0.73632912 70.62796488 -0.73828125 70.62890625 C-1.43410812 70.63609177 -2.129935 70.64327728 -2.84684753 70.65068054 C-7.74771839 70.62728161 -7.74771839 70.62728161 -9.9765625 68.3984375 C-10.3125 65.90234375 -10.3125 65.90234375 -10.3515625 62.9609375 C-10.37992188 61.99285156 -10.40828125 61.02476562 -10.4375 60.02734375 C-9.9765625 57.3984375 -9.9765625 57.3984375 -8.3034668 55.74584961 C-5.39419997 54.06121593 -3.63004234 54.09432134 -0.28515625 54.2109375 C0.82537109 54.23414063 1.93589844 54.25734375 3.08007812 54.28125 C5.39000466 54.35846203 7.6999016 54.43656519 10.00976562 54.515625 C17.1714914 54.66405455 24.45772669 54.6267104 31.0234375 51.3984375 C32.28340053 49.51979575 32.28340053 49.51979575 33.0234375 47.3984375 C33.5596875 46.3671875 34.0959375 45.3359375 34.6484375 44.2734375 C36.83667666 39.03288525 36.97958287 33.54777507 35.33203125 28.12109375 C33.21685239 23.36857891 30.71912113 20.84410606 26.0234375 18.3984375 C22.50048387 17.2415816 19.08478594 17.22750014 15.39453125 17.15234375 C14.11255859 17.11947266 12.83058594 17.08660156 11.50976562 17.05273438 C9.4799475 17.00523166 7.45016416 16.96073 5.42016602 16.92163086 C3.45310054 16.88192339 1.48629793 16.82980406 -0.48046875 16.77734375 C-1.65424072 16.7522876 -2.8280127 16.72723145 -4.03735352 16.70141602 C-6.9765625 16.3984375 -6.9765625 16.3984375 -9.9765625 14.3984375 C-10.375 11.90234375 -10.375 11.90234375 -10.3515625 8.9609375 C-10.35929688 7.99285156 -10.36703125 7.02476563 -10.375 6.02734375 C-9.9765625 3.3984375 -9.9765625 3.3984375 -8.88769531 1.7590332 C-5.98753571 -0.30568185 -3.52460232 0.0094085 0 0 Z " fill="#5672F5" transform="translate(637.9765625,105.6015625)"/>
<path d="M0 0 C2.55071493 2.33363281 4.07762211 4.19071709 6 7 C7.25663248 8.77058936 8.51993261 10.53631825 9.78344727 12.30200195 C10.66248483 13.53745366 11.53436455 14.77803681 12.39819336 16.02416992 C14.69989858 19.32174839 17.05104422 22.26168392 20 25 C20.37898438 24.17242187 20.37898438 24.17242187 20.765625 23.328125 C22.76435495 19.55836851 25.37791979 16.2532839 27.91015625 12.828125 C29.18592353 11.10166611 30.44755331 9.36449507 31.68359375 7.609375 C36.63665254 0.6622276 36.63665254 0.6622276 41 -1 C44.64674564 -1.51156753 47.85872421 -1.58665415 51.21374512 0.13793945 C53.74836114 2.78012033 53.50729301 4.5442227 53.51757812 8.16796875 C53.53018677 9.43938721 53.54279541 10.71080566 53.55578613 12.02075195 C53.54862653 13.4096736 53.5404226 14.79859019 53.53125 16.1875 C53.53394452 17.61092392 53.53782661 19.03434605 53.54284668 20.45776367 C53.54874377 23.44044526 53.54017281 26.42264758 53.52148438 29.40527344 C53.49869369 33.22902065 53.51181579 37.05164495 53.53577423 40.87535095 C53.5502271 43.81449854 53.5456288 46.7533798 53.53526306 49.6925354 C53.53259431 51.10234713 53.53587083 52.51218304 53.54518127 53.92196655 C53.5553363 55.89198343 53.53711406 57.86208506 53.51757812 59.83203125 C53.51439575 60.95327393 53.51121338 62.0745166 53.50793457 63.22973633 C53 66 53 66 51.09265137 67.85839844 C48.86102453 69.07581512 47.5247356 69.43256888 45 69.4375 C44.34 69.45683594 43.68 69.47617188 43 69.49609375 C39.95075078 68.73973701 38.90936962 67.49441256 37 65 C36.58219569 62.0529474 36.39521882 59.46448237 36.390625 56.515625 C36.37408875 55.70003113 36.35755249 54.88443726 36.34051514 54.04412842 C36.29203417 51.44600903 36.27066477 48.84847491 36.25 46.25 C36.22184028 44.48564764 36.19191284 42.72132254 36.16015625 40.95703125 C36.08627558 36.63806903 36.03670188 32.31943171 36 28 C35.65219482 28.46897705 35.30438965 28.9379541 34.94604492 29.42114258 C33.36240831 31.55349886 31.77499882 33.68301773 30.1875 35.8125 C29.64029297 36.55048828 29.09308594 37.28847656 28.52929688 38.04882812 C27.99755859 38.76103516 27.46582031 39.47324219 26.91796875 40.20703125 C26.18743286 41.18893433 26.18743286 41.18893433 25.44213867 42.19067383 C24.04351389 43.9454069 22.70252365 45.53612408 21 47 C17.60133335 46.98898325 16.29418544 46.2768185 13.81640625 43.9453125 C13.07261719 43.01460937 12.32882813 42.08390625 11.5625 41.125 C11.14709961 40.60905273 10.73169922 40.09310547 10.30371094 39.56152344 C4.52701757 32.29352996 -0.90437956 24.74843048 -6.35742188 17.23681641 C-8.4703972 14.35942641 -10.64189732 11.52836417 -12.82714844 8.70556641 C-14.34947139 6.49179702 -15 4.69332469 -15 2 C-10.94593078 -2.05406922 -5.22521539 -1.57031956 0 0 Z " fill="#5572F9" transform="translate(53,107)"/>
<path d="M0 0 C0.91007812 0.00902344 1.82015625 0.01804687 2.7578125 0.02734375 C3.80582031 0.04474609 3.80582031 0.04474609 4.875 0.0625 C6.7600965 3.832693 6.80201791 7.99392139 5.875 12.0625 C3.9308311 13.83308239 2.13040028 14.79164803 -0.27734375 15.83203125 C-2.40371255 16.96012225 -2.40371255 16.96012225 -2.87890625 19.69921875 C-3.00072266 20.86904297 -3.00072266 20.86904297 -3.125 22.0625 C-2.53976562 22.20945313 -1.95453125 22.35640625 -1.3515625 22.5078125 C31.08998173 30.98353126 31.08998173 30.98353126 36.9375 40.375 C38.76562599 47.5656289 38.71325429 53.50032331 34.875 60.0625 C29.22507554 66.2671974 22.30264681 69.57628961 13.875 70.0625 C10.875 68.0625 10.875 68.0625 9.875 65.0625 C9.31229904 58.87278939 9.31229904 58.87278939 11.4375 55.8125 C14.46773212 53.63694873 17.39430813 52.40122764 20.875 51.0625 C20.545 49.4125 20.215 47.7625 19.875 46.0625 C18.69526611 45.6771106 18.69526611 45.6771106 17.49169922 45.28393555 C14.54954979 44.32035233 11.60881349 43.35259896 8.66894531 42.38208008 C6.78034417 41.75999504 4.89018272 41.14265342 3 40.52539062 C1.80117188 40.12900391 0.60234375 39.73261719 -0.6328125 39.32421875 C-1.73254395 38.96287842 -2.83227539 38.60153809 -3.96533203 38.22924805 C-7.15627144 37.05095262 -10.11379419 35.6395149 -13.125 34.0625 C-13.125 33.4025 -13.125 32.7425 -13.125 32.0625 C-14.115 31.7325 -15.105 31.4025 -16.125 31.0625 C-19.63850555 25.98743642 -19.92701201 21.01766963 -19.125 15.0625 C-17.22319436 8.29255035 -12.93907464 4.6994428 -7.125 1.0625 C-4.60024538 -0.19987731 -2.81299534 -0.03606404 0 0 Z " fill="#5672F5" transform="translate(426.125,106.9375)"/>
<path d="M0 0 C2.10282319 0.00315776 4.2042357 -0.02029745 6.30688477 -0.0456543 C7.64737779 -0.04792769 8.98787458 -0.0486306 10.32836914 -0.04760742 C11.54516357 -0.05058838 12.76195801 -0.05356934 14.015625 -0.05664062 C17.40470742 0.34261397 18.80008689 0.90938113 21.17602539 3.31567383 C21.70727539 5.69067383 21.70727539 5.69067383 21.67602539 8.31567383 C21.68633789 9.18192383 21.69665039 10.04817383 21.70727539 10.94067383 C21.17602539 13.31567383 21.17602539 13.31567383 19.68969727 14.95239258 C15.9712047 16.96910416 12.58116774 16.6375441 8.42602539 16.50317383 C7.63325195 16.48963867 6.84047852 16.47610352 6.02368164 16.4621582 C4.07416975 16.42692606 2.12500913 16.37312204 0.17602539 16.31567383 C0.17237976 16.94572327 0.16873413 17.57577271 0.16497803 18.22491455 C0.12318827 24.77881847 0.0538674 31.33201978 -0.03149414 37.88549805 C-0.05973096 40.33171565 -0.08093192 42.77802495 -0.0949707 45.22436523 C-0.11636192 48.73965496 -0.16299499 52.25383894 -0.21459961 55.76879883 C-0.21644257 57.41117523 -0.21644257 57.41117523 -0.21832275 59.08673096 C-0.2479007 60.6178653 -0.2479007 60.6178653 -0.27807617 62.17993164 C-0.28695862 63.07705872 -0.29584106 63.97418579 -0.30499268 64.89849854 C-0.98629776 68.07169922 -2.34473363 69.29016149 -4.82397461 71.31567383 C-7.73182342 72.02449686 -9.76651361 71.65539172 -12.82397461 71.31567383 C-14.52709961 70.27270508 -14.52709961 70.27270508 -15.82397461 68.31567383 C-16.23615606 65.6600926 -16.43442305 63.23836512 -16.51147461 60.56567383 C-16.54418457 59.73527588 -16.57689453 58.90487793 -16.6105957 58.04931641 C-16.93777097 48.03931118 -16.9274126 38.01763373 -16.94897461 28.00317383 C-16.95174408 27.13543335 -16.95451355 26.26769287 -16.95736694 25.37365723 C-16.96321424 22.85819264 -16.96134751 20.34285772 -16.95678711 17.82739258 C-16.95875595 17.07380966 -16.96072479 16.32022675 -16.9627533 15.54380798 C-16.94337209 11.06050881 -16.78979581 6.71394441 -15.82397461 2.31567383 C-11.04824644 -0.86814495 -5.58353405 -0.01759722 0 0 Z " fill="#5672F3" transform="translate(511.823974609375,105.684326171875)"/>
<path d="M0 0 C1.74118455 3.4823691 1.57948084 7.20044946 1 11 C-1.41060038 14.26140051 -3.4349819 15.72325644 -7.0625 17.5 C-11.83921308 19.93917264 -13.53216589 22.68560892 -15.3125 27.6875 C-16.58105945 33.67917813 -15.72910037 39.3439915 -14.125 45.1875 C-11.2397728 49.00618306 -7.61237633 50.83051424 -3.546875 53.27734375 C-0.31487655 55.46340405 1.03222166 57.20953482 2 61 C1.875 64.25 1.875 64.25 1 67 C-2.6953525 69.46356833 -4.21466891 69.25881673 -8.4609375 68.6640625 C-17.47613412 66.30624185 -23.52909311 60.17147685 -28.5546875 52.68359375 C-33.44934477 43.59540579 -34.05556146 33.29702299 -31.3125 23.5625 C-27.70149427 12.5910819 -22.8167524 6.87619254 -12.8125 1.1875 C-8.23662741 -0.74453509 -4.83249404 -1.4765954 0 0 Z " fill="#5672F5" transform="translate(772,107)"/>
<path d="M0 0 C10.13300961 3.409777 16.30949817 10.69392448 21 20 C24.9534904 29.34461367 23.98577796 40.83644807 20.45703125 50.17578125 C16.61645645 57.62011257 9.9370312 64.88657892 2 68 C-6.47866805 69.76066597 -6.47866805 69.76066597 -10 68 C-10.85791925 64.68311502 -11.11509602 61.419996 -11 58 C-8.68694641 54.27900074 -4.59844523 52.52990168 -0.90234375 50.29296875 C2.7039241 47.84189143 4.63848917 45.0845325 6 41 C6.47983895 34.0884736 6.89373354 28.00283921 3 22 C3 21.34 3 20.68 3 20 C2.42507813 19.72027344 1.85015625 19.44054687 1.2578125 19.15234375 C-0.93100463 18.0352139 -3.02767263 16.84242792 -5.125 15.5625 C-5.80820312 15.15128906 -6.49140625 14.74007812 -7.1953125 14.31640625 C-9 13 -9 13 -11 10 C-11.53282588 4.03235014 -11.53282588 4.03235014 -10 1.0625 C-6.71570376 -0.68228238 -3.57132284 -0.56961959 0 0 Z " fill="#5572F9" transform="translate(787,107)"/>
<path d="M0 0 C0.7734375 -0.00515625 1.546875 -0.0103125 2.34375 -0.015625 C4.5 0.25 4.5 0.25 7.5 2.25 C8.62426128 5.62278385 8.59788796 8.13078983 8.5625 11.68359375 C8.55476562 12.97330078 8.54703125 14.26300781 8.5390625 15.59179688 C8.52666161 16.95703702 8.51363767 18.32227165 8.5 19.6875 C7.57555606 36.36580032 7.57555606 36.36580032 11.5 52.25 C13.87625345 53.43391223 13.87625345 53.43391223 16.5 54.25 C19.52699938 56.18391627 20.33745342 56.76236025 21.5 60.25 C21.84710744 66.72933884 21.84710744 66.72933884 19.5 70.25 C13.17609883 70.99398837 8.55994545 69.3562722 3.45703125 65.84375 C-2.99832015 60.70853613 -6.6851029 55.1108897 -8.05859375 46.91796875 C-8.82153937 37.6213351 -8.51354719 28.26651867 -8.29888916 18.94857788 C-8.26632616 17.52582681 -8.23746991 16.10298602 -8.21234131 14.68008423 C-8.17286409 12.66265716 -8.11031644 10.64572197 -8.046875 8.62890625 C-8.01432617 7.4488501 -7.98177734 6.26879395 -7.94824219 5.05297852 C-7.80032227 4.12799561 -7.65240234 3.2030127 -7.5 2.25 C-4.377998 0.16866533 -3.56733011 -0.0237822 0 0 Z " fill="#5470F6" transform="translate(554.5,105.75)"/>
<path d="M0 0 C1.16015625 -0.03867188 1.16015625 -0.03867188 2.34375 -0.078125 C5.11676152 0.34385501 5.79925561 1.0406024 7.5 3.25 C7.96411133 5.73583984 7.96411133 5.73583984 8.08203125 8.7109375 C8.15139893 10.36331421 8.15139893 10.36331421 8.22216797 12.04907227 C8.25197754 13.22912842 8.28178711 14.40918457 8.3125 15.625 C8.34746582 16.832771 8.38243164 18.04054199 8.41845703 19.28491211 C9.12127495 52.81021103 9.12127495 52.81021103 -0.13671875 63.0625 C-4.87567107 67.49262172 -9.87077973 70.12479903 -16.4375 70.4375 C-17.448125 70.375625 -18.45875 70.31375 -19.5 70.25 C-21.73244396 65.91643232 -21.75804803 62.94671265 -20.5 58.25 C-18.28147144 55.55178959 -16.45890917 53.71575588 -13.3125 52.1875 C-10.89587615 50.93752215 -10.52035656 49.7438592 -9.5 47.25 C-9.18461095 45.13484862 -9.18461095 45.13484862 -9.19702148 42.89624023 C-9.18037949 42.0453331 -9.16373749 41.19442596 -9.14659119 40.31773376 C-9.13817703 39.40721756 -9.12976288 38.49670135 -9.12109375 37.55859375 C-9.10409927 36.61693863 -9.0871048 35.67528351 -9.06959534 34.70509338 C-9.01651019 31.6992969 -8.9761896 28.69351355 -8.9375 25.6875 C-8.89354971 22.67798618 -8.84683033 19.66857833 -8.79469299 16.65919495 C-8.76277979 14.78731753 -8.73587606 12.91534667 -8.71446228 11.0433197 C-8.70097244 10.19556473 -8.6874826 9.34780975 -8.67358398 8.47436523 C-8.66407211 7.72920151 -8.65456024 6.98403778 -8.64476013 6.21629333 C-8.5 4.25 -8.5 4.25 -7.5 1.25 C-4.73952457 0.32984152 -2.86637731 0.05732755 0 0 Z " fill="#5571F7" transform="translate(600.5,105.75)"/>
<path d="M0 0 C2.97890604 3.53663074 2.30880272 7.58220901 2.2109375 12.04296875 C2.21802734 12.94982422 2.22511719 13.85667969 2.23242188 14.79101562 C2.185555 19.69040713 2.07114776 22.27973129 -1.2265625 26.10546875 C-0.74050537 26.43490479 -0.25444824 26.76434082 0.24633789 27.10375977 C2.58802616 30.17322454 2.22137286 33.4227637 2.20703125 37.1328125 C2.2122731 37.91813858 2.21751495 38.70346466 2.22291565 39.5125885 C2.22933572 41.17268695 2.227999 42.8328309 2.21948242 44.49291992 C2.21097891 47.0306115 2.23971985 49.56604689 2.27148438 52.10351562 C2.27309669 53.71744724 2.27251827 55.33138284 2.26953125 56.9453125 C2.28638222 58.08141212 2.28638222 58.08141212 2.30357361 59.24046326 C2.2569057 62.77632774 2.05637113 64.73438788 -0.11669922 67.58447266 C-2.56439332 69.34901029 -3.79982429 69.61883774 -6.7890625 69.54296875 C-7.55347656 69.54167969 -8.31789063 69.54039062 -9.10546875 69.5390625 C-11.90251688 68.96729023 -12.5831466 68.46493411 -14.2265625 66.10546875 C-14.50049058 63.25793006 -14.59928644 60.63391855 -14.5546875 57.7890625 C-14.55281433 56.97679703 -14.55094116 56.16453156 -14.54901123 55.32765198 C-14.54229287 53.61202891 -14.52838258 51.89642111 -14.5078125 50.1809082 C-14.47663984 47.54949775 -14.46683955 44.91868622 -14.4609375 42.28710938 C-14.45176807 40.62108642 -14.44139249 38.95506957 -14.4296875 37.2890625 C-14.42543762 36.4994664 -14.42118774 35.7098703 -14.41680908 34.89634705 C-14.34377388 29.33989151 -14.34377388 29.33989151 -13.2265625 27.10546875 C-12.2365625 26.77546875 -11.2465625 26.44546875 -10.2265625 26.10546875 C-10.88011719 25.65429688 -11.53367187 25.203125 -12.20703125 24.73828125 C-15.29104793 20.71772566 -14.69561435 16.89967585 -14.5390625 11.98046875 C-14.52939453 11.06136719 -14.51972656 10.14226562 -14.50976562 9.1953125 C-14.39575418 2.44385211 -14.39575418 2.44385211 -13.2265625 0.10546875 C-8.71742132 -1.39757831 -4.42026045 -1.77585902 0 0 Z " fill="#4B62D8" transform="translate(284.2265625,106.89453125)"/>
<path d="M0 0 C0.88779648 -0.01283524 1.77559296 -0.02567047 2.69029236 -0.03889465 C3.64658035 -0.04628159 4.60286835 -0.05366852 5.58813477 -0.0612793 C6.57322525 -0.06935104 7.55831573 -0.07742279 8.57325745 -0.08573914 C10.65705612 -0.09956836 12.74087733 -0.11029571 14.82470703 -0.11816406 C18.01386127 -0.13541324 21.20198847 -0.17931411 24.39086914 -0.22338867 C26.41495006 -0.23351263 28.43903978 -0.24202966 30.46313477 -0.2487793 C31.89453041 -0.27504143 31.89453041 -0.27504143 33.35484314 -0.30183411 C39.96527981 -0.28012772 39.96527981 -0.28012772 43.19628906 2.07641602 C45.54991324 5.6185854 44.99089901 7.98899298 44.59204102 12.17700195 C42.59204102 15.17700195 42.59204102 15.17700195 39.59204102 16.17700195 C36.65172756 16.28648171 33.73586667 16.3410633 30.79516602 16.3449707 C29.92817078 16.3482991 29.06117554 16.3516275 28.16790771 16.35505676 C26.33207733 16.36011997 24.49623775 16.36246528 22.66040039 16.36230469 C19.86662373 16.36448279 17.07324738 16.38262162 14.27954102 16.40161133 C12.49308403 16.40454714 10.70662517 16.40653068 8.92016602 16.4074707 C8.090755 16.41465622 7.26134399 16.42184174 6.40679932 16.429245 C-5.20088635 16.38407459 -5.20088635 16.38407459 -8.40795898 13.17700195 C-8.50650554 11.53359329 -8.5376831 9.88585585 -8.53295898 8.23950195 C-8.53553711 7.34360352 -8.53811523 6.44770508 -8.54077148 5.5246582 C-8.40795898 3.17700195 -8.40795898 3.17700195 -7.40795898 1.17700195 C-4.62466021 0.2492357 -2.88026092 0.03631885 0 0 Z " fill="#556FF5" transform="translate(135.407958984375,105.822998046875)"/>
<path d="M0 0 C0.9744104 -0.00960754 1.9488208 -0.01921509 2.95275879 -0.02911377 C4.53558655 -0.03548859 4.53558655 -0.03548859 6.15039062 -0.04199219 C7.23042358 -0.04769226 8.31045654 -0.05339233 9.42321777 -0.05926514 C11.7097068 -0.06872163 13.9962095 -0.07525169 16.28271484 -0.07910156 C19.79223138 -0.08882726 23.3011674 -0.11985319 26.81054688 -0.15136719 C29.0279913 -0.15789497 31.24543993 -0.16314632 33.46289062 -0.16699219 C34.51810913 -0.17933899 35.57332764 -0.19168579 36.66052246 -0.20440674 C38.12213806 -0.19990509 38.12213806 -0.19990509 39.61328125 -0.1953125 C40.47328735 -0.19895813 41.33329346 -0.20260376 42.21936035 -0.20635986 C42.90816284 -0.08508728 43.59696533 0.0361853 44.30664062 0.16113281 C46.37184695 3.2589423 46.60141087 4.11518091 46.61914062 7.66113281 C46.63589844 8.43457031 46.65265625 9.20800781 46.66992188 10.00488281 C46.20965917 12.73676469 45.46647581 13.46226584 43.30664062 15.16113281 C41.1817627 15.53535461 41.1817627 15.53535461 38.69921875 15.53344727 C37.30262024 15.54279045 37.30262024 15.54279045 35.87780762 15.55232239 C34.87463501 15.54311264 33.8714624 15.53390289 32.83789062 15.52441406 C31.80603638 15.52491257 30.77418213 15.52541107 29.71105957 15.52592468 C27.52887039 15.52358359 25.34667854 15.51385302 23.16455078 15.49731445 C19.81974198 15.47372521 16.47573019 15.476753 13.13085938 15.48339844 C11.01236503 15.47782166 8.89387405 15.47071179 6.77539062 15.46191406 C5.77221802 15.46282547 4.76904541 15.46373688 3.73547363 15.4646759 C2.80440796 15.45514389 1.87334229 15.44561188 0.9140625 15.43579102 C0.094823 15.43118362 -0.7244165 15.42657623 -1.56848145 15.42182922 C-3.69335938 15.16113281 -3.69335938 15.16113281 -6.69335938 13.16113281 C-7.24023438 11.10253906 -7.24023438 11.10253906 -7.44335938 8.72363281 C-7.52070312 7.94117188 -7.59804687 7.15871094 -7.67773438 6.35253906 C-7.69335938 4.16113281 -7.69335938 4.16113281 -6.69335938 1.16113281 C-4.27186017 -0.04961679 -2.70566093 0.02148155 0 0 Z " fill="#5572FB" transform="translate(133.693359375,160.8388671875)"/>
<path d="M0 0 C0.9170874 -0.00145523 1.8341748 -0.00291046 2.77905273 -0.00440979 C4.71568991 -0.00275171 6.65234038 0.00879941 8.58886719 0.02954102 C11.55200207 0.05849118 14.51334708 0.0501491 17.4765625 0.03710938 C19.35938369 0.04334713 21.24219923 0.05173836 23.125 0.0625 C24.45325806 0.05809654 24.45325806 0.05809654 25.80834961 0.05360413 C31.91549588 0.14719839 31.91549588 0.14719839 35.11914062 1.87475586 C37.10200996 4.10212988 37.09762186 5.5458573 37.0625 8.49609375 C37.0728125 9.36234375 37.083125 10.22859375 37.09375 11.12109375 C36.5625 13.49609375 36.5625 13.49609375 35.11914062 15.11743164 C31.21770819 17.22126939 27.49214666 16.94416552 23.125 16.9296875 C21.7493689 16.93755028 21.7493689 16.93755028 20.34594727 16.9455719 C18.40935274 16.95198781 16.47271922 16.95066068 14.53613281 16.94213867 C11.5728628 16.93362353 8.61151735 16.96240388 5.6484375 16.99414062 C3.76562558 16.99575262 1.88281024 16.99517514 0 16.9921875 C-0.88550537 17.00342148 -1.77101074 17.01465546 -2.68334961 17.02622986 C-8.81968976 16.9566786 -8.81968976 16.9566786 -11.99414062 14.59008789 C-13.55440822 12.32648586 -13.98003218 11.21815302 -13.9375 8.49609375 C-13.95296875 7.50609375 -13.95296875 7.50609375 -13.96875 6.49609375 C-12.08155788 -0.60862954 -6.06564086 -0.07695185 0 0 Z " fill="#5673F4" transform="translate(139.4375,132.50390625)"/>
<path d="M0 0 C0.66 0.33 1.32 0.66 2 1 C3.23868281 4.71604843 3.18154462 8.19030496 3.203125 12.0625 C3.20882507 12.85019775 3.21452515 13.63789551 3.22039795 14.44946289 C3.22983636 16.1137559 3.23637733 17.77806751 3.24023438 19.44238281 C3.24996397 21.99056341 3.28100686 24.53794533 3.3125 27.0859375 C3.319028 28.70312021 3.32427927 30.32030869 3.328125 31.9375 C3.3404718 32.70006104 3.3528186 33.46262207 3.36553955 34.24829102 C3.34332074 39.51101705 3.34332074 39.51101705 1.61206055 41.97680664 C-0.49795969 43.31606074 -1.94677883 43.4332998 -4.4375 43.4375 C-5.19933594 43.45683594 -5.96117187 43.47617188 -6.74609375 43.49609375 C-9.95533485 42.78972699 -10.99209847 41.59371198 -13 39 C-13.41043031 36.31031961 -13.58525355 34.0356646 -13.56640625 31.34765625 C-13.57260483 30.61050888 -13.57880341 29.87336151 -13.58518982 29.11387634 C-13.59227893 27.5581087 -13.58912966 26.00226505 -13.57641602 24.4465332 C-13.56256101 22.07295225 -13.59661052 19.70332542 -13.63476562 17.33007812 C-13.63571703 15.81510321 -13.63385682 14.30012338 -13.62890625 12.78515625 C-13.64216446 12.0798024 -13.65542267 11.37444855 -13.66908264 10.64772034 C-13.59564131 6.73679971 -13.09693935 5.11912139 -10.59619141 2.04614258 C-6.71450985 -1.01313644 -4.80475762 -0.47259911 0 0 Z " fill="#5572F2" transform="translate(720,133)"/>
<path d="M0 0 C2.57360742 1.93020557 3.82971901 3.69039821 5.375 6.5 C6.89992322 9.23098202 6.89992322 9.23098202 10 10.875 C13.76640012 13.54286675 14.71181071 15.60500125 16 20 C15.8125 23.375 15.8125 23.375 15 26 C11.96797567 27.51601217 9.27682457 27.51707691 6 27 C-1.36906663 24.50871997 -6.18460165 20.77700126 -10 14 C-11.57863968 10.34042621 -12.75274976 6.97882014 -12 3 C-8.2599439 -0.28671596 -4.84894749 -0.61713877 0 0 Z " fill="#5572F8" transform="translate(417,149)"/>
<path d="M0 0 C1.81242052 -0.02687279 3.62495233 -0.04633715 5.4375 -0.0625 C6.44683594 -0.07410156 7.45617187 -0.08570313 8.49609375 -0.09765625 C11 0 11 0 12 1 C12.10102113 3.71556227 12.13970277 6.40514538 12.1328125 9.12109375 C12.13376923 9.93618912 12.13472595 10.75128448 12.13571167 11.59107971 C12.13639353 13.31861447 12.13453884 15.04615177 12.13037109 16.77368164 C12.12502975 19.42274728 12.13031232 22.07164284 12.13671875 24.72070312 C12.13605783 26.39583371 12.13477639 28.07096419 12.1328125 29.74609375 C12.13483673 30.54196396 12.13686096 31.33783417 12.13894653 32.15782166 C12.11495544 37.77008912 12.11495544 37.77008912 11 40 C8.03 40 5.06 40 2 40 C-0.62187983 34.75624033 -1.09796651 31.21171506 -0.87890625 25.48828125 C-0.85529526 24.76005661 -0.83168427 24.03183197 -0.80735779 23.28153992 C-0.7308565 20.9583216 -0.6467744 18.63544807 -0.5625 16.3125 C-0.50926573 14.73634493 -0.45652542 13.16017309 -0.40429688 11.58398438 C-0.27525978 7.7224384 -0.13942375 3.86118434 0 0 Z " fill="#5573FB" transform="translate(272,135)"/>
<path d="M0 0 C6.86911079 -0.96408572 11.4564037 0.9480966 17 5 C21.34334345 9.12195944 24.06618615 13.11320569 24.25 19.125 C24 23 24 23 22 25 C17.45737555 25.68060227 13.32702855 25.92891998 9.5 23.25 C8 21 8 21 7.125 18.9375 C5.44820473 16.04968592 2.97124181 15.36181916 0 14 C-2 12 -2 12 -2.265625 9.94140625 C-2.26046875 9.15636719 -2.2553125 8.37132813 -2.25 7.5625 C-2.25515625 6.78003906 -2.2603125 5.99757813 -2.265625 5.19140625 C-2 3 -2 3 0 0 Z " fill="#5672FA" transform="translate(438,107)"/>
<path d="M0 0 C0.86625 -0.01933594 1.7325 -0.03867188 2.625 -0.05859375 C5 0.4375 5 0.4375 6.79296875 1.8671875 C8.66056114 5.8441318 8.39380455 9.66484164 8.3125 14 C8.31733398 15.29454102 8.31733398 15.29454102 8.32226562 16.61523438 C8.26738366 23.03642451 8.26738366 23.03642451 6 26.4375 C3.50390625 26.87109375 3.50390625 26.87109375 0.5625 26.875 C-0.40558594 26.89433594 -1.37367188 26.91367188 -2.37109375 26.93359375 C-5 26.4375 -5 26.4375 -6.82421875 25.0078125 C-8.6458771 21.02558262 -8.43340383 17.20012836 -8.375 12.875 C-8.38660156 12.01197266 -8.39820313 11.14894531 -8.41015625 10.25976562 C-8.40628906 9.43025391 -8.40242187 8.60074219 -8.3984375 7.74609375 C-8.39505371 6.99126709 -8.39166992 6.23644043 -8.38818359 5.45874023 C-7.4821303 0.7409948 -4.35037522 0.00647377 0 0 Z " fill="#5572FB" transform="translate(715,105.5625)"/>
<path d="M0 0 C2.67431489 1.81163267 2.95920359 2.87761077 4 6 C4.17365845 8.661814 4.27673659 11.27431799 4.3125 13.9375 C4.34150391 14.65357422 4.37050781 15.36964844 4.40039062 16.10742188 C4.44231478 19.58712648 4.27360446 21.61501673 2.234375 24.484375 C-1.37077084 26.92982358 -3.70714687 26.34070263 -8 26 C-8.99 25.67 -9.98 25.34 -11 25 C-12.82433189 21.35133622 -12.27044726 17.07993877 -12.3125 13.0625 C-12.34150391 12.14275391 -12.37050781 11.22300781 -12.40039062 10.27539062 C-12.40876953 9.39173828 -12.41714844 8.50808594 -12.42578125 7.59765625 C-12.44036377 6.78820557 -12.45494629 5.97875488 -12.4699707 5.14477539 C-12 3 -12 3 -10.10058594 1.23754883 C-6.56794346 -0.84368836 -4.05352273 -0.38604978 0 0 Z " fill="#5673FA" transform="translate(50,150)"/>
<path d="M0 0 C0.66 0 1.32 0 2 0 C2.09263761 8.29269378 2.16373258 16.58517177 2.20724869 24.87825489 C2.22813325 28.72899957 2.25646573 32.57939055 2.30175781 36.42993164 C2.34518613 40.14522978 2.36913056 43.86018749 2.37950897 47.57571983 C2.38690591 48.99395801 2.40135052 50.41217733 2.42292023 51.83027077 C2.45190802 53.81480397 2.4536335 55.79967898 2.45410156 57.78442383 C2.46298401 58.91471512 2.47186646 60.04500641 2.48101807 61.20954895 C2 64 2 64 0.09661865 65.8613739 C-2.13634069 67.07404354 -3.47626211 67.43257082 -6 67.4375 C-6.66 67.45683594 -7.32 67.47617188 -8 67.49609375 C-11.04924922 66.73973701 -12.09063038 65.49441256 -14 63 C-14.41780431 60.0529474 -14.60478118 57.46448237 -14.609375 54.515625 C-14.63417938 53.29223419 -14.63417938 53.29223419 -14.65948486 52.04412842 C-14.70796583 49.44600903 -14.72933523 46.84847491 -14.75 44.25 C-14.77815972 42.48564764 -14.80808716 40.72132254 -14.83984375 38.95703125 C-14.91372442 34.63806903 -14.96329812 30.31943171 -15 26 C-16.98 28.64 -18.96 31.28 -21 34 C-21 31.37886292 -20.68707555 29.49064888 -20 27 C-19.34 27 -18.68 27 -18 27 C-17.67 25.68 -17.34 24.36 -17 23 C-15.68 22.67 -14.36 22.34 -13 22 C-10.77672484 27.23123567 -11.18157451 30.54383008 -12 36 C-11.67 36.66 -11.34 37.32 -11 38 C-10.98376756 39.81548036 -11.03519019 41.63179299 -11.12109375 43.4453125 C-11.16943359 44.52167969 -11.21777344 45.59804687 -11.26757812 46.70703125 C-11.32365234 47.83496094 -11.37972656 48.96289062 -11.4375 50.125 C-11.48970703 51.26066406 -11.54191406 52.39632812 -11.59570312 53.56640625 C-11.72564456 56.37786631 -11.86061914 59.18899465 -12 62 C-7.545 61.505 -7.545 61.505 -3 61 C-2.67 61.99 -2.34 62.98 -2 64 C-1.34 64 -0.68 64 0 64 C0 42.88 0 21.76 0 0 Z " fill="#4D67DC" transform="translate(104,109)"/>
<path d="M0 0 C2.125 1.1875 2.125 1.1875 4.125 4.1875 C4.2421875 6.125 4.2421875 6.125 4 8.1875 C3.93554688 8.868125 3.87109375 9.54875 3.8046875 10.25 C2.85129657 12.96771208 1.60742739 13.77878688 -0.875 15.1875 C-4.2807647 15.84245475 -7.45976521 15.77750734 -10.875 15.1875 C-13.68791685 13.04432526 -14.60726869 11.65147758 -15.2421875 8.1796875 C-15.44244037 4.98742118 -15.31924876 2.77983168 -13.375 0.1875 C-8.83413796 -1.62884482 -4.59413326 -1.29834201 0 0 Z " fill="#5572F9" transform="translate(488.875,106.8125)"/>
<path d="M0 0 C3.50129871 -0.10003711 6.58093768 0.27021695 10 1 C10.02888146 4.31248187 10.04675799 7.62493167 10.0625 10.9375 C10.07087891 11.88302734 10.07925781 12.82855469 10.08789062 13.80273438 C10.09111328 14.70185547 10.09433594 15.60097656 10.09765625 16.52734375 C10.10289307 17.35999756 10.10812988 18.19265137 10.11352539 19.05053711 C10 21 10 21 9 22 C7.33570949 22.09823937 5.66718069 22.12973631 4 22.125 C2.63875 22.12886719 2.63875 22.12886719 1.25 22.1328125 C-1 22 -1 22 -2 21 C-2.12658222 18.34177343 -2.18520214 15.72112576 -2.1875 13.0625 C-2.19974609 12.32064453 -2.21199219 11.57878906 -2.22460938 10.81445312 C-2.22988478 8.87486371 -2.12188902 6.9357629 -2 5 C-1.34 4.34 -0.68 3.68 0 3 C0 2.01 0 1.02 0 0 Z " fill="#5573FB" transform="translate(274,108)"/>
<path d="M0 0 C2.66376265 2.66376265 3.73835728 5.75406647 5.125 9.1875 C5.40214844 9.83525391 5.67929687 10.48300781 5.96484375 11.15039062 C7.76068522 15.57806874 8.28940763 19.14927641 8 24 C5.2690748 25.3654626 3.09433959 25.13472498 0.03735352 25.14526367 C-1.21411972 25.15164352 -2.46559296 25.15802338 -3.75498962 25.16459656 C-5.12702394 25.16612517 -6.49905877 25.16723916 -7.87109375 25.16796875 C-9.27352432 25.171181 -10.67595454 25.17454504 -12.0783844 25.17805481 C-15.01979347 25.184047 -17.96117315 25.18589461 -20.90258789 25.18530273 C-24.67336627 25.18520109 -28.44395645 25.19885504 -32.21469021 25.21607494 C-35.11172859 25.2271883 -38.00872137 25.22922215 -40.90577888 25.22869301 C-42.29605826 25.22987406 -43.68633878 25.23430287 -45.07659721 25.24202538 C-47.02035986 25.25181155 -48.96417755 25.24768652 -50.90795898 25.24291992 C-52.01445297 25.24434494 -53.12094696 25.24576996 -54.26097107 25.24723816 C-57 25 -57 25 -60 23 C-60.61074843 19.16100989 -60.12005286 17.24010571 -58.375 13.75 C-55.70652528 10.66018716 -53.92775068 9.89267061 -50 9 C-50.33 9.99 -50.66 10.98 -51 12 C-51.804375 12.28875 -52.60875 12.5775 -53.4375 12.875 C-56.2013447 13.77480086 -56.2013447 13.77480086 -57.3125 16.4375 C-58.12956428 19.04073423 -58.12956428 19.04073423 -58 22 C-38.86 22.33 -19.72 22.66 0 23 C0 22.01 0 21.02 0 20 C1.32 19.34 2.64 18.68 4 18 C3.60756368 14.15412406 3.04610654 10.81804822 1.4375 7.3125 C0 4 0 4 0 0 Z " fill="#526CDE" transform="translate(360,151)"/>
<path d="M0 0 C0.99 0 1.98 0 3 0 C5.44038726 4.88077452 6.46845421 7.52667068 5 13 C4.31292969 13.20496094 3.62585938 13.40992188 2.91796875 13.62109375 C2.01691406 13.89050781 1.11585938 14.15992188 0.1875 14.4375 C-1.15248047 14.83775391 -1.15248047 14.83775391 -2.51953125 15.24609375 C-4.35473055 15.80387873 -6.18033726 16.39344575 -8 17 C-8.99 16.67 -9.98 16.34 -11 16 C-12.25 8.375 -12.25 8.375 -10 5 C-8.8553125 5.061875 -8.8553125 5.061875 -7.6875 5.125 C-3.79334151 4.94387635 -2.60195403 2.73889897 0 0 Z " fill="#5573FB" transform="translate(789,158)"/>
<path d="M0 0 C6.86911079 -0.96408572 11.4564037 0.9480966 17 5 C21.34334345 9.12195944 24.06618615 13.11320569 24.25 19.125 C24 23 24 23 22 25 C18.63487539 25.50418243 15.36830795 25.46721691 12 25 C9.375 23 9.375 23 8 21 C8.33 20.34 8.66 19.68 9 19 C9.33 19.99 9.66 20.98 10 22 C11.2375 22.165 12.475 22.33 13.75 22.5 C14.79414063 22.63921875 14.79414063 22.63921875 15.859375 22.78125 C18.30458395 23.06777357 18.30458395 23.06777357 22 23 C21.5359375 21.4221875 21.5359375 21.4221875 21.0625 19.8125 C20 16 20 16 19.5 13.25 C19.08272782 10.73301478 19.08272782 10.73301478 17 8 C15.7625 7.7525 15.7625 7.7525 14.5 7.5 C13.2625 7.2525 13.2625 7.2525 12 7 C10 4 10 4 9 2 C6.36 2 3.72 2 1 2 C1.165 3.258125 1.33 4.51625 1.5 5.8125 C1.82158241 8.26456585 2 10.51650694 2 13 C4.475 13.99 4.475 13.99 7 15 C7 15.99 7 16.98 7 18 C5.68648079 17.18914873 4.37421332 16.37626942 3.0625 15.5625 C2.33160156 15.11003906 1.60070312 14.65757813 0.84765625 14.19140625 C-1 13 -1 13 -2 12 C-2.16796875 10.0390625 -2.16796875 10.0390625 -2.1875 7.625 C-2.20167969 6.83351563 -2.21585937 6.04203125 -2.23046875 5.2265625 C-2 3 -2 3 0 0 Z " fill="#576AD4" transform="translate(438,107)"/>
<path d="M0 0 C3.65506922 0.97087776 5.0312957 2.80635729 7.5 5.6640625 C9.07475848 8.48159067 10.30099978 11.40997556 11.5234375 14.39453125 C12.04908798 15.64197868 12.04908798 15.64197868 12.58535767 16.91462708 C13.31882904 18.66286968 14.04630258 20.41363954 14.76806641 22.16674805 C15.878224 24.85938217 17.00982465 27.54224139 18.14453125 30.22460938 C18.85544609 31.92654947 19.56512589 33.6290061 20.2734375 35.33203125 C20.61289398 36.13722702 20.95235046 36.94242279 21.30209351 37.77201843 C22.09512163 39.71243459 22.80592403 41.68609207 23.5 43.6640625 C23.005 44.6540625 23.005 44.6540625 22.5 45.6640625 C18.5 38.9140625 18.5 38.9140625 18.5 36.6640625 C16.85 36.0040625 15.2 35.3440625 13.5 34.6640625 C13.809375 33.3028125 13.809375 33.3028125 14.125 31.9140625 C14.52826837 28.41906997 14.16091728 27.59509299 12.5 24.6640625 C12.5 23.3440625 12.5 22.0240625 12.5 20.6640625 C11.51 20.3340625 10.52 20.0040625 9.5 19.6640625 C9.17 17.0240625 8.84 14.3840625 8.5 11.6640625 C7.84 11.6640625 7.18 11.6640625 6.5 11.6640625 C6.17 10.0140625 5.84 8.3640625 5.5 6.6640625 C4.18 6.3340625 2.86 6.0040625 1.5 5.6640625 C1.5 4.6740625 1.5 3.6840625 1.5 2.6640625 C-0.81 2.6640625 -3.12 2.6640625 -5.5 2.6640625 C-5.83 3.6540625 -6.16 4.6440625 -6.5 5.6640625 C-8.5625 6.8515625 -8.5625 6.8515625 -10.5 7.6640625 C-11.16 7.0040625 -11.82 6.3440625 -12.5 5.6640625 C-8.78999511 0.71738931 -6.09044857 0.09516326 0 0 Z " fill="#546BD5" transform="translate(336.5,105.3359375)"/>
<path d="M0 0 C0.66 0.33 1.32 0.66 2 1 C1.67 1.99 1.34 2.98 1 4 C0.93334624 5.39439664 0.91461801 6.79169875 0.9375 8.1875 C0.958125 9.445625 0.97875 10.70375 1 12 C6.92651057 12.02469854 12.85299125 12.04285931 18.77954102 12.05493164 C20.79614789 12.05996382 22.8127511 12.06679014 24.8293457 12.07543945 C27.72608339 12.08755373 30.62277288 12.09323943 33.51953125 12.09765625 C34.42274612 12.10281754 35.325961 12.10797882 36.25654602 12.11329651 C37.09719101 12.11337204 37.937836 12.11344757 38.80395508 12.11352539 C39.91315056 12.11685631 39.91315056 12.11685631 41.04475403 12.12025452 C43.21631658 12.07089116 43.21631658 12.07089116 46 11 C46.33 8.03 46.66 5.06 47 2 C47.33 2 47.66 2 48 2 C48.10824843 3.6026782 48.18570645 5.20745748 48.25 6.8125 C48.29640625 7.70582031 48.3428125 8.59914062 48.390625 9.51953125 C48 12 48 12 46.56542969 13.62792969 C42.65653811 15.71852454 38.9309698 15.44807616 34.5625 15.43359375 C33.1868689 15.44145653 33.1868689 15.44145653 31.78344727 15.44947815 C29.84685274 15.45589406 27.91021922 15.45456693 25.97363281 15.44604492 C23.0103628 15.43752978 20.04901735 15.46631013 17.0859375 15.49804688 C15.20312558 15.49965887 13.32031024 15.49908139 11.4375 15.49609375 C10.55199463 15.50732773 9.66648926 15.51856171 8.75415039 15.53013611 C2.61961394 15.46060529 2.61961394 15.46060529 -0.56103516 13.09619141 C-2.98019688 9.57211225 -2.40033472 7.20351451 -2 3 C-1.34 2.01 -0.68 1.02 0 0 Z " fill="#5367C4" transform="translate(128,134)"/>
<path d="M0 0 C5.94435973 2.00028835 10.47914053 5.76169424 15 10 C14.67 10.66 14.34 11.32 14 12 C13.41992188 11.52949219 12.83984375 11.05898437 12.2421875 10.57421875 C3.66575995 3.5391214 3.66575995 3.5391214 -7 2 C-7.66 3.98 -8.32 5.96 -9 8 C-8.34 8 -7.68 8 -7 8 C-7 7.34 -7 6.68 -7 6 C-6.34 6 -5.68 6 -5 6 C-5 7.03125 -5 8.0625 -5 9.125 C-4.64771241 11.8132253 -4.2519915 12.76960777 -2.22265625 14.625 C-0.78453124 15.62362569 0.66350117 16.60813495 2.12109375 17.578125 C4.50438183 19.38169436 5.32077782 21.11330574 6 24 C6.66 24 7.32 24 8 24 C8 29.61 8 35.22 8 41 C7.67 41 7.34 41 7 41 C6.96261719 40.13117188 6.92523437 39.26234375 6.88671875 38.3671875 C6.41611089 29.73779216 6.41611089 29.73779216 3 22 C3 21.34 3 20.68 3 20 C2.42507813 19.72027344 1.85015625 19.44054687 1.2578125 19.15234375 C-0.93100463 18.0352139 -3.02767263 16.84242792 -5.125 15.5625 C-5.80820312 15.15128906 -6.49140625 14.74007812 -7.1953125 14.31640625 C-9 13 -9 13 -11 10 C-11.53282588 4.03235014 -11.53282588 4.03235014 -10 1.0625 C-6.71570376 -0.68228238 -3.57132284 -0.56961959 0 0 Z " fill="#576AD2" transform="translate(787,107)"/>
<path d="M0 0 C0.33 0 0.66 0 1 0 C1.08131463 1.43655854 1.13933559 2.8744483 1.1875 4.3125 C1.23970703 5.51326172 1.23970703 5.51326172 1.29296875 6.73828125 C0.92438599 9.58374018 0.23709456 10.25306556 -2 12 C-4.12487793 12.3742218 -4.12487793 12.3742218 -6.60742188 12.37231445 C-8.00402039 12.38165764 -8.00402039 12.38165764 -9.42883301 12.39118958 C-10.43200562 12.38197983 -11.43517822 12.37277008 -12.46875 12.36328125 C-13.50060425 12.36377975 -14.5324585 12.36427826 -15.59558105 12.36479187 C-17.77777023 12.36245078 -19.95996208 12.35272021 -22.14208984 12.33618164 C-25.48689865 12.3125924 -28.83091044 12.31562019 -32.17578125 12.32226562 C-34.2942756 12.31668885 -36.41276658 12.30957897 -38.53125 12.30078125 C-39.53442261 12.30169266 -40.53759521 12.30260406 -41.57116699 12.30354309 C-42.50223267 12.29401108 -43.43329834 12.28447906 -44.39257812 12.2746582 C-45.21181763 12.27005081 -46.03105713 12.26544342 -46.87512207 12.26069641 C-49 12 -49 12 -52 10 C-52.6875 6.875 -52.6875 6.875 -53 4 C-51 6 -51 6 -51 9 C-34.83 9 -18.66 9 -2 9 C-2.495 7.02 -2.495 7.02 -3 5 C-1.625 2.25 -1.625 2.25 0 0 Z " fill="#4F69D2" transform="translate(179,164)"/>
<path d="M0 0 C0.86625 -0.01933594 1.7325 -0.03867188 2.625 -0.05859375 C5 0.4375 5 0.4375 6.79296875 1.8671875 C8.66056114 5.8441318 8.39380455 9.66484164 8.3125 14 C8.31733398 15.29454102 8.31733398 15.29454102 8.32226562 16.61523438 C8.26738366 23.03642451 8.26738366 23.03642451 6 26.4375 C3.50390625 26.87109375 3.50390625 26.87109375 0.5625 26.875 C-0.40558594 26.89433594 -1.37367188 26.91367188 -2.37109375 26.93359375 C-5 26.4375 -5 26.4375 -6.82421875 25.0078125 C-8.6458771 21.02558262 -8.43340383 17.20012836 -8.375 12.875 C-8.38660156 12.01197266 -8.39820313 11.14894531 -8.41015625 10.25976562 C-8.40628906 9.43025391 -8.40242187 8.60074219 -8.3984375 7.74609375 C-8.39505371 6.99126709 -8.39166992 6.23644043 -8.38818359 5.45874023 C-7.4821303 0.7409948 -4.35037522 0.00647377 0 0 Z M-6 2.4375 C-7.25818438 9.56721149 -6.71148265 16.25699816 -6 23.4375 C-1.1939291 25.9133547 -0.04750931 25.3014299 6 24.4375 C6 17.5075 6 10.5775 6 3.4375 C2.04 3.1075 -1.92 2.7775 -6 2.4375 Z " fill="#566DC5" transform="translate(715,105.5625)"/>
<path d="M0 0 C2.67431489 1.81163267 2.95920359 2.87761077 4 6 C4.17365845 8.661814 4.27673659 11.27431799 4.3125 13.9375 C4.34150391 14.65357422 4.37050781 15.36964844 4.40039062 16.10742188 C4.44248813 19.60151511 4.27584282 21.61551011 2.21484375 24.48828125 C-0.89042972 26.60775362 -3.33292118 26.28208299 -7 26 C-7 25.67 -7 25.34 -7 25 C-6.030625 24.87625 -5.06125 24.7525 -4.0625 24.625 C-3.051875 24.41875 -2.04125 24.2125 -1 24 C-0.67 23.34 -0.34 22.68 0 22 C0.66 22 1.32 22 2 22 C1.67 16.72 1.34 11.44 1 6 C-0.98 5.34 -2.96 4.68 -5 4 C-5 3.34 -5 2.68 -5 2 C-6.65 2.33 -8.3 2.66 -10 3 C-10.05401695 5.91691525 -10.09368066 8.83282724 -10.125 11.75 C-10.14175781 12.575 -10.15851562 13.4 -10.17578125 14.25 C-10.18222656 15.04921875 -10.18867187 15.8484375 -10.1953125 16.671875 C-10.20578613 17.4050293 -10.21625977 18.13818359 -10.22705078 18.89355469 C-9.96777544 21.29896076 -9.19225925 22.91251494 -8 25 C-8.99 25 -9.98 25 -11 25 C-12.82433189 21.35133622 -12.27044726 17.07993877 -12.3125 13.0625 C-12.34150391 12.14275391 -12.37050781 11.22300781 -12.40039062 10.27539062 C-12.40876953 9.39173828 -12.41714844 8.50808594 -12.42578125 7.59765625 C-12.44036377 6.78820557 -12.45494629 5.97875488 -12.4699707 5.14477539 C-12 3 -12 3 -10.10058594 1.23754883 C-6.56794346 -0.84368836 -4.05352273 -0.38604978 0 0 Z " fill="#586AD8" transform="translate(50,150)"/>
<path d="M0 0 C3.5625 0.4375 3.5625 0.4375 5.625 2.6875 C6.5625 5.4375 6.5625 5.4375 5.75 7.75 C5.358125 8.306875 4.96625 8.86375 4.5625 9.4375 C3.9025 9.4375 3.2425 9.4375 2.5625 9.4375 C2.2325 10.4275 1.9025 11.4175 1.5625 12.4375 C0.9025 12.4375 0.2425 12.4375 -0.4375 12.4375 C-0.7675 11.7775 -1.0975 11.1175 -1.4375 10.4375 C-1.7675 11.4275 -2.0975 12.4175 -2.4375 13.4375 C-3.4275 13.4375 -4.4175 13.4375 -5.4375 13.4375 C-6.77369632 5.7172546 -6.77369632 5.7172546 -5.4375 2.4375 C-3.4375 0.4375 -3.4375 0.4375 0 0 Z " fill="#5672FA" transform="translate(414.4375,150.5625)"/>
<path d="M0 0 C0.98086578 0.00007553 1.96173157 0.00015106 2.97232056 0.00022888 C4.03381317 0.00539017 5.09530579 0.01055145 6.18896484 0.01586914 C7.8161293 0.01799156 7.8161293 0.01799156 9.47616577 0.02015686 C12.95077234 0.02576737 16.42531515 0.03832167 19.89990234 0.05102539 C22.25146392 0.05603904 24.60302649 0.06060218 26.95458984 0.06469727 C32.7280492 0.07574021 38.50147122 0.0924886 44.27490234 0.11352539 C44.27490234 1.10352539 44.27490234 2.09352539 44.27490234 3.11352539 C43.68021652 3.11130478 43.0855307 3.10908417 42.4728241 3.10679626 C36.29251709 3.08470095 30.11222127 3.06960097 23.93188477 3.05859375 C21.62426294 3.05355988 19.31664432 3.04673234 17.0090332 3.03808594 C13.69530448 3.02597904 10.38161787 3.02028766 7.06787109 3.01586914 C6.03341354 3.01070786 4.99895599 3.00554657 3.93315125 3.00022888 C2.97238174 3.00015335 2.01161224 3.00007782 1.02172852 3 C0.17567551 2.99777939 -0.6703775 2.99555878 -1.54206848 2.99327087 C-3.90565557 3.02728418 -3.90565557 3.02728418 -6.72509766 4.11352539 C-6.72509766 3.12352539 -6.72509766 2.13352539 -6.72509766 1.11352539 C-4.28542269 -0.10631209 -2.72605241 -0.00698988 0 0 Z " fill="#5D72D0" transform="translate(133.72509765625,160.886474609375)"/>
<path d="M0 0 C1.3527899 4.05836971 -0.11610853 6.48283229 -1.68359375 10.24609375 C-2.11983818 11.32530342 -2.11983818 11.32530342 -2.56489563 12.42631531 C-3.51346776 14.76713714 -4.47518532 17.10229814 -5.4375 19.4375 C-6.08775823 21.03269651 -6.73717176 22.62823762 -7.38574219 24.22412109 C-8.35283408 26.60242513 -9.32094368 28.98027622 -10.29312134 31.35650635 C-12.1115643 35.80145888 -13.89968034 40.25593883 -15.64453125 44.73046875 C-16.0094165 45.66383057 -16.37430176 46.59719238 -16.75024414 47.55883789 C-17.40109809 49.22944249 -18.0476481 50.90173234 -18.68920898 52.57592773 C-20.77762364 57.88881182 -20.77762364 57.88881182 -23 59 C-22.1016367 54.99350621 -20.74851515 51.1353054 -19.4375 47.25 C-19.20353516 46.55261719 -18.96957031 45.85523438 -18.72851562 45.13671875 C-18.15370621 43.4240213 -17.57703725 41.71194814 -17 40 C-16.34 40 -15.68 40 -15 40 C-14.8453125 38.7315625 -14.8453125 38.7315625 -14.6875 37.4375 C-14.07388955 34.36944773 -13.17177108 31.82012096 -11.88671875 28.98046875 C-10.48649313 25.85309258 -9.23873147 22.66710346 -7.98046875 19.48046875 C-7.37019854 17.93655806 -6.74960941 16.39663588 -6.11328125 14.86328125 C-4.24242863 10.21809109 -3.44574226 5.99231331 -3 1 C-2.01 0.67 -1.02 0.34 0 0 Z " fill="#5669CE" transform="translate(254,113)"/>
<path d="M0 0 C4.3924631 -0.07482575 8.78457672 -0.12891683 13.17749023 -0.16479492 C14.66811598 -0.17977042 16.15869851 -0.20015819 17.64916992 -0.22631836 C28.12740154 -0.40546345 36.96822779 -0.1182973 46 6 C44.68 6.33 43.36 6.66 42 7 C42 6.34 42 5.68 42 5 C38.04 4.67 34.08 4.34 30 4 C30 3.34 30 2.68 30 2 C29.30261719 2.16242188 28.60523438 2.32484375 27.88671875 2.4921875 C24.80601603 3.03412438 21.93873185 3.13276704 18.8125 3.125 C17.24435547 3.12886719 17.24435547 3.12886719 15.64453125 3.1328125 C13 3 13 3 11 2 C9.12943209 1.7724985 7.25314042 1.59037189 5.375 1.4375 C4.37210938 1.35371094 3.36921875 1.26992187 2.3359375 1.18359375 C1.56507813 1.12300781 0.79421875 1.06242187 0 1 C0 0.67 0 0.34 0 0 Z " fill="#5A70E0" transform="translate(631,106)"/>
<path d="M0 0 C2.34051154 3.67605443 2.20404639 6.778414 2.125 11.06640625 C2.11742676 11.74170883 2.10985352 12.41701141 2.10205078 13.11277771 C2.07769064 15.262949 2.04043294 17.41257453 2 19.5625 C1.94682118 22.39712119 1.90683771 25.23147405 1.875 28.06640625 C1.85179687 29.32396729 1.82859375 30.58152832 1.8046875 31.87719727 C1.74824363 35.16585232 1.74824363 35.16585232 4 38 C5.96361864 38.57748803 5.96361864 38.57748803 8.125 38.6875 C9.40375 38.790625 10.6825 38.89375 12 39 C12 39.33 12 39.66 12 40 C10.58506449 40.10884119 9.16767057 40.18597617 7.75 40.25 C6.96109375 40.29640625 6.1721875 40.3428125 5.359375 40.390625 C2.01336475 39.83664979 1.05048499 38.68478469 -1 36 C-1.36175436 33.2724661 -1.49217642 30.96043663 -1.42578125 28.2421875 C-1.42249313 27.49792511 -1.41920502 26.75366272 -1.41581726 25.98684692 C-1.40541792 24.41838802 -1.38550417 22.84996697 -1.35668945 21.28173828 C-1.31252595 18.87641348 -1.2952389 16.47208675 -1.28320312 14.06640625 C-1.26978209 12.54165221 -1.25485995 11.01691048 -1.23828125 9.4921875 C-1.23089432 8.77134979 -1.22350739 8.05051208 -1.21589661 7.30783081 C-1.11840798 2.23681596 -1.11840798 2.23681596 0 0 Z " fill="#5164CC" transform="translate(708,136)"/>
<path d="M0 0 C0.64453125 1.765625 0.64453125 1.765625 1 4 C0.07421875 5.921875 0.07421875 5.921875 -1.3125 7.75 C-1.98732422 8.67039063 -1.98732422 8.67039063 -2.67578125 9.609375 C-3.11277344 10.06828125 -3.54976562 10.5271875 -4 11 C-4.66 11 -5.32 11 -6 11 C-6.28875 11.639375 -6.5775 12.27875 -6.875 12.9375 C-8 15 -8 15 -10 16 C-12.125 15.5625 -12.125 15.5625 -14 15 C-14.5745952 18.73486879 -15 22.21293268 -15 26 C-11.48602289 26.31945246 -9.74242309 25.88702767 -6.4375 24.4375 C-3 23 -3 23 -0.5625 23.3125 C-0.046875 23.539375 0.46875 23.76625 1 24 C-3.56084986 27.49665156 -8.39881546 27.9603456 -14 28 C-14.66 27.67 -15.32 27.34 -16 27 C-16.85791925 23.68311502 -17.11509602 20.419996 -17 17 C-14.68694641 13.27900074 -10.59844523 11.52990168 -6.90234375 9.29296875 C-3.2960759 6.84189143 -1.36151083 4.0845325 0 0 Z " fill="#5167D2" transform="translate(793,148)"/>
<path d="M0 0 C0.99 0.33 1.98 0.66 3 1 C3.19491452 2.45736087 3.38069358 3.91594593 3.5625 5.375 C3.66691406 6.18710938 3.77132812 6.99921875 3.87890625 7.8359375 C4 10 4 10 3 12 C2.84558791 14.10374996 2.75007361 16.21195119 2.68359375 18.3203125 C2.64169922 19.57714844 2.59980469 20.83398438 2.55664062 22.12890625 C2.51732422 23.44761719 2.47800781 24.76632813 2.4375 26.125 C2.39430488 27.46485751 2.35069027 28.80470156 2.30664062 30.14453125 C2.20029019 33.42957815 2.09826192 36.71470281 2 40 C1.67 40 1.34 40 1 40 C0.67 28.12 0.34 16.24 0 4 C-1.98 6.64 -3.96 9.28 -6 12 C-6 9.37886292 -5.68707555 7.49064888 -5 5 C-4.34 5 -3.68 5 -3 5 C-2.814375 4.0409375 -2.814375 4.0409375 -2.625 3.0625 C-2.41875 2.381875 -2.2125 1.70125 -2 1 C-1.34 0.67 -0.68 0.34 0 0 Z " fill="#586BD8" transform="translate(89,131)"/>
<path d="M0 0 C2.125 1.1875 2.125 1.1875 4.125 4.1875 C4.2421875 6.125 4.2421875 6.125 4 8.1875 C3.93554688 8.868125 3.87109375 9.54875 3.8046875 10.25 C2.85129657 12.96771208 1.60742739 13.77878688 -0.875 15.1875 C-4.2807647 15.84245475 -7.45976521 15.77750734 -10.875 15.1875 C-13.68791685 13.04432526 -14.60726869 11.65147758 -15.2421875 8.1796875 C-15.44244037 4.98742118 -15.31924876 2.77983168 -13.375 0.1875 C-8.83413796 -1.62884482 -4.59413326 -1.29834201 0 0 Z M-13.875 3.1875 C-13.68579594 8.58390551 -13.68579594 8.58390551 -11.3125 13.1875 C-7.59489249 14.71267231 -4.89528789 14.57038456 -0.875 14.1875 C1.29166667 13.35416667 1.29166667 13.35416667 2.125 11.1875 C2.35559307 8.46864681 2.25975823 5.92758408 2.125 3.1875 C-3.21274451 0.51862774 -8.76293445 -0.2205437 -13.875 3.1875 Z " fill="#5E6ECB" transform="translate(488.875,106.8125)"/>
<path d="M0 0 C2.58779907 1.9408493 3.87066644 3.77905517 5.5 6.5625 C7.06325168 9.10278399 8.52712323 10.37983936 11 12 C8.8125 12 8.8125 12 6 11 C4.80078125 9.15234375 4.80078125 9.15234375 3.625 6.9375 C2.47117131 4.75552834 2.47117131 4.75552834 1 3 C-2.6288837 2.1655408 -2.6288837 2.1655408 -6 3 C-8.60704898 5.60704898 -8.23905333 7.47338241 -8.265625 11.02734375 C-8.10382514 13.31952326 -8.10382514 13.31952326 -6 16 C-6.33 16.99 -6.66 17.98 -7 19 C-10.08467498 13.60540561 -11.55643705 9.20988129 -12 3 C-7.92081084 0.03331698 -5.01742187 -0.63858096 0 0 Z " fill="#586BD0" transform="translate(417,149)"/>
<path d="M0 0 C1.32 0 2.64 0 4 0 C4.83790789 1.78953185 5.67019396 3.58169695 6.5 5.375 C6.9640625 6.37273437 7.428125 7.37046875 7.90625 8.3984375 C9 11 9 11 9 13 C9.66 13.33 10.32 13.66 11 14 C11.4140625 16.06640625 11.4140625 16.06640625 11.625 18.5625 C11.69976562 19.38878906 11.77453125 20.21507812 11.8515625 21.06640625 C11.90054687 21.70449219 11.94953125 22.34257812 12 23 C9.54958797 19.32438195 8.03953056 15.5142466 6.375 11.4375 C6.05015625 10.65697266 5.7253125 9.87644531 5.390625 9.07226562 C5.08382813 8.32525391 4.77703125 7.57824219 4.4609375 6.80859375 C4.18040527 6.12595459 3.89987305 5.44331543 3.61083984 4.73999023 C3 3 3 3 3 1 C2.34 1 1.68 1 1 1 C0.82984375 1.61746094 0.6596875 2.23492187 0.484375 2.87109375 C-1.22185424 8.8338204 -3.33581117 14.40114631 -6 20 C-7.4606285 17.35261084 -8 16.10551666 -8 13 C-7.01 13 -6.02 13 -5 13 C-4.87753906 12.43796875 -4.75507813 11.8759375 -4.62890625 11.296875 C-3.9480131 8.81013481 -3.00647675 6.59485224 -1.9375 4.25 C-1.57527344 3.45078125 -1.21304687 2.6515625 -0.83984375 1.828125 C-0.56269531 1.22484375 -0.28554688 0.6215625 0 0 Z " fill="#596ACB" transform="translate(332,129)"/>
<path d="M0 0 C1.8871875 0.0309375 1.8871875 0.0309375 3.8125 0.0625 C4.1425 1.0525 4.4725 2.0425 4.8125 3.0625 C3.8225 3.0625 2.8325 3.0625 1.8125 3.0625 C1.4825 3.7225 1.1525 4.3825 0.8125 5.0625 C0.8125 4.0725 0.8125 3.0825 0.8125 2.0625 C-0.8375 2.3925 -2.4875 2.7225 -4.1875 3.0625 C-4.1875 4.0525 -4.1875 5.0425 -4.1875 6.0625 C-4.5175 6.3925 -4.8475 6.7225 -5.1875 7.0625 C-5.27381874 8.40517413 -5.29456473 9.75224322 -5.28515625 11.09765625 C-5.28193359 11.90654297 -5.27871094 12.71542969 -5.27539062 13.54882812 C-5.26701172 14.39896484 -5.25863281 15.24910156 -5.25 16.125 C-5.24548828 16.97900391 -5.24097656 17.83300781 -5.23632812 18.71289062 C-5.22450373 20.82945663 -5.20656769 22.94598685 -5.1875 25.0625 C-6.1775 24.4025 -7.1675 23.7425 -8.1875 23.0625 C-8.54394531 21.03125 -8.54394531 21.03125 -8.515625 18.5625 C-8.51046875 17.675625 -8.5053125 16.78875 -8.5 15.875 C-8.479375 14.946875 -8.45875 14.01875 -8.4375 13.0625 C-8.43234375 12.134375 -8.4271875 11.20625 -8.421875 10.25 C-8.34188988 3.37127976 -8.34188988 3.37127976 -7.1875 1.0625 C-4.43671116 0.14557039 -2.82801087 -0.04636083 0 0 Z " fill="#566CD9" transform="translate(278.1875,105.9375)"/>
<path d="M0 0 C0.33 0 0.66 0 1 0 C1.125 5.75 1.125 5.75 0 8 C-0.34010448 15.06216948 -0.09514628 22.01844249 1 29 C1.99 29.33 2.98 29.66 4 30 C4.68025637 31.99541868 5.34490497 33.99617991 6 36 C8.0115195 38.80804265 8.0115195 38.80804265 10 41 C9.67 41.66 9.34 42.32 9 43 C8.05766832 41.94178287 7.12138732 40.87817677 6.1875 39.8125 C5.66542969 39.22082031 5.14335938 38.62914062 4.60546875 38.01953125 C-1.24856334 30.65570013 -4.04172987 20.37556885 -3 11 C-2.12035867 7.29438453 -1.10695937 3.64374126 0 0 Z " fill="#5365CE" transform="translate(742,126)"/>
<path d="M0 0 C5.55393438 5.06388135 7.54378358 11.01723069 8.390625 18.41015625 C8.64535179 26.62509507 7.10904005 33.42171488 4 41 C2.86207599 37.58622798 3.47799766 36.43884423 4.51074219 33.14013672 C5.49193428 28.84815574 5.2028138 24.44102293 5.125 20.0625 C5.11597656 19.09248047 5.10695313 18.12246094 5.09765625 17.12304688 C5.07426107 14.74843593 5.04148176 12.37435224 5 10 C4.01 9.67 3.02 9.34 2 9 C1.855625 8.2575 1.71125 7.515 1.5625 6.75 C1.09812508 4.47972261 0.58136431 2.24240521 0 0 Z " fill="#5569D0" transform="translate(802,119)"/>
<path d="M0 0 C0.33 0 0.66 0 1 0 C0.98839844 1.01578125 0.97679687 2.0315625 0.96484375 3.078125 C0.23628061 18.45154835 0.23628061 18.45154835 4 33 C6.45704762 34.23290201 6.45704762 34.23290201 9 35 C9.66 35.66 10.32 36.32 11 37 C4.64705882 35.94117647 4.64705882 35.94117647 2 34 C-0.76454799 28.70690202 -1.42668333 24.60304515 -1.25 18.6875 C-1.23904297 17.94636963 -1.22808594 17.20523926 -1.21679688 16.44165039 C-1.10601789 10.92136518 -0.69576155 5.47912222 0 0 Z " fill="#6373BA" transform="translate(562,125)"/>
<path d="M0 0 C1.16402344 0.10054688 1.16402344 0.10054688 2.3515625 0.203125 C4.375 0.75 4.375 0.75 6.375 3.75 C3.735 3.75 1.095 3.75 -1.625 3.75 C-1.625 3.09 -1.625 2.43 -1.625 1.75 C-3.605 2.41 -5.585 3.07 -7.625 3.75 C-7.35945313 4.26949219 -7.09390625 4.78898437 -6.8203125 5.32421875 C-4.91801903 9.08020694 -3.10540295 12.80225879 -1.625 16.75 C-5.61638612 13.09122939 -8.36951114 9.71207549 -10.625 4.75 C-10.125 2.375 -10.125 2.375 -8.625 0.75 C-5.63599472 -0.27221393 -3.12593949 -0.31363941 0 0 Z " fill="#5A66D7" transform="translate(48.625,106.25)"/>
<path d="M0 0 C0.33 0 0.66 0 1 0 C1.30582837 12.89576309 1.44522928 23.62648514 -7.53515625 33.7265625 C-9 35 -9 35 -11 35 C-11 34.34 -11 33.68 -11 33 C-10.01 32.34 -9.02 31.68 -8 31 C-6.4225861 28.43595207 -6.4225861 28.43595207 -5 25 C-4.65582031 24.22527344 -4.31164062 23.45054687 -3.95703125 22.65234375 C-0.90112888 15.1615217 -0.23490364 8.04544959 0 0 Z " fill="#5C6EC9" transform="translate(607,136)"/>
<path d="M0 0 C1.8871875 0.0309375 1.8871875 0.0309375 3.8125 0.0625 C3.1525 0.7225 2.4925 1.3825 1.8125 2.0625 C0.8225 1.7325 -0.1675 1.4025 -1.1875 1.0625 C-1.5175 1.7225 -1.8475 2.3825 -2.1875 3.0625 C-3.1775 2.7325 -4.1675 2.4025 -5.1875 2.0625 C-5.95478788 6.90924729 -6.361148 11.61238109 -6.50390625 16.52734375 C-6.52468735 17.20551651 -6.54546844 17.88368927 -6.56687927 18.58241272 C-6.63159309 20.72151831 -6.6908909 22.86073296 -6.75 25 C-6.79325984 26.46159924 -6.83687634 27.92318797 -6.88085938 29.38476562 C-6.98719251 32.9438984 -7.0886733 36.50314997 -7.1875 40.0625 C-7.5175 40.0625 -7.8475 40.0625 -8.1875 40.0625 C-8.21221188 34.99048214 -8.23036564 29.91849929 -8.24243164 24.84643555 C-8.24746158 23.1208434 -8.25428626 21.39525552 -8.26293945 19.66967773 C-8.27506361 17.1899307 -8.28074169 14.71024 -8.28515625 12.23046875 C-8.29289818 11.07251045 -8.29289818 11.07251045 -8.30079651 9.89115906 C-8.30113318 6.6794772 -8.21076578 4.13229734 -7.1875 1.0625 C-4.43671116 0.14557039 -2.82801087 -0.04636083 0 0 Z " fill="#5F68B5" transform="translate(600.1875,105.9375)"/>
<path d="M0 0 C2.85109227 2.85109227 2.86327758 5.03504975 3 9 C1.625 11.5 1.625 11.5 -1 13 C-7.9226925 13.67706973 -13.33929179 10.62660029 -19 7 C-19 6.67 -19 6.34 -19 6 C-17.02 5.67 -15.04 5.34 -13 5 C-13 5.99 -13 6.98 -13 8 C-10.03821227 9.67110042 -7.62928808 10.32682752 -4.25 10.625 C-3.45078125 10.69976562 -2.6515625 10.77453125 -1.828125 10.8515625 C-1.22484375 10.90054688 -0.6215625 10.94953125 0 11 C-0.185625 10.29875 -0.37125 9.5975 -0.5625 8.875 C-1.05156976 5.66111302 -0.66231558 3.16439664 0 0 Z " fill="#586BC3" transform="translate(771,163)"/>
<path d="M0 0 C5.11911205 2.22408023 8.94511872 4.11218996 12 9 C14.21203272 16.17054901 13.36193953 22.41620175 10 29 C9.06576355 25.98968256 8.95550089 25.13349732 10 22 C10.52776848 16.10320222 10.63675419 10.92721535 7 6 C4.73202404 4.3872171 2.51522927 3.23388606 0 2 C0 1.34 0 0.68 0 0 Z " fill="#5366DF" transform="translate(451,138)"/>
<path d="M0 0 C0.66 0.33 1.32 0.66 2 1 C1.67 2.65 1.34 4.3 1 6 C0.34 6 -0.32 6 -1 6 C-0.34 8.31 0.32 10.62 1 13 C2.32 13.33 3.64 13.66 5 14 C5.33 12.35 5.66 10.7 6 9 C10.75 9.75 10.75 9.75 13 12 C8.03006806 14.43425238 4.65394631 15.34615998 -1 15 C-3.23082477 10.66957545 -3.0472723 7.71272535 -2 3 C-1.34 2.01 -0.68 1.02 0 0 Z " fill="#5466D1" transform="translate(582,161)"/>
<path d="M0 0 C0.66 0.33 1.32 0.66 2 1 C3.17664871 4.52994613 3.19850603 7.29455413 3 11 C2.01 12.485 2.01 12.485 1 14 C-5.20442344 14.72993217 -10.03933395 13.27698974 -14.99609375 9.46484375 C-16.70234155 8.01264492 -18.36698894 6.53373987 -20 5 C-17 5 -17 5 -14.8125 6.8125 C-10.38378553 10.2570557 -5.41016056 11.71071898 0 13 C-0.185625 12.38125 -0.37125 11.7625 -0.5625 11.125 C-1 9 -1 9 0 7 C0.04022391 4.6670134 0.04320247 2.33293334 0 0 Z " fill="#5668C6" transform="translate(573,162)"/>
<path d="M0 0 C1.48608398 1.25585938 1.48608398 1.25585938 3 3 C3.16555061 5.90439675 3.19039731 8.60903808 3.0625 11.5 C2.64935477 17.54697185 2.64935477 17.54697185 5 23 C4.67 23.99 4.34 24.98 4 26 C4.66 26.33 5.32 26.66 6 27 C5.01 27 4.02 27 3 27 C0.36008732 24.36008732 0.69759203 23.02053704 0.5859375 19.3359375 C0.54726563 18.21445313 0.50859375 17.09296875 0.46875 15.9375 C0.4378125 14.761875 0.406875 13.58625 0.375 12.375 C0.33632813 11.19164062 0.29765625 10.00828125 0.2578125 8.7890625 C0.16331155 5.85953309 0.07775442 2.93001403 0 0 Z " fill="#4B60E7" transform="translate(495,149)"/>
<path d="M0 0 C0.91007812 0.00902344 1.82015625 0.01804687 2.7578125 0.02734375 C3.80582031 0.04474609 3.80582031 0.04474609 4.875 0.0625 C6.13737731 2.58725462 5.97356404 4.37450466 5.9375 7.1875 C5.92847656 8.09757812 5.91945313 9.00765625 5.91015625 9.9453125 C5.89855469 10.64398438 5.88695312 11.34265625 5.875 12.0625 C5.545 12.0625 5.215 12.0625 4.875 12.0625 C4.38 7.1125 4.38 7.1125 3.875 2.0625 C-5.39728789 3.44278804 -10.55861671 5.12089481 -17.125 12.0625 C-15.80415553 6.44891099 -11.68812373 4.06655646 -7.125 1.0625 C-4.60024538 -0.19987731 -2.81299534 -0.03606404 0 0 Z " fill="#5768CB" transform="translate(426.125,106.9375)"/>
<path d="M0 0 C0.33 0 0.66 0 1 0 C1.01981934 0.97348389 1.03963867 1.94696777 1.06005859 2.94995117 C1.13635367 6.57504351 1.22503336 10.19974694 1.31738281 13.82446289 C1.35557409 15.39079081 1.39044394 16.95720349 1.421875 18.52368164 C1.46774071 20.780418 1.52569769 23.03657583 1.5859375 25.29296875 C1.59748871 25.98899704 1.60903992 26.68502533 1.62094116 27.40214539 C1.73962749 31.34631513 2.28121304 34.43879404 4 38 C6.64 38.33 9.28 38.66 12 39 C12 39.33 12 39.66 12 40 C10.56344146 40.08131463 9.1255517 40.13933559 7.6875 40.1875 C6.48673828 40.23970703 6.48673828 40.23970703 5.26171875 40.29296875 C3 40 3 40 1.37695312 39.00585938 C-0.81950671 35.80619378 -0.36595846 32.35541013 -0.29296875 28.61328125 C-0.28872391 27.79627243 -0.28447906 26.97926361 -0.28010559 26.13749695 C-0.26331691 23.52882893 -0.22566519 20.92093438 -0.1875 18.3125 C-0.17245337 16.54363095 -0.15876492 14.77474979 -0.14648438 13.00585938 C-0.11341286 8.67027504 -0.0616299 4.33526864 0 0 Z " fill="#556ACA" transform="translate(270,136)"/>
<path d="M0 0 C2.625 2 2.625 2 4 4 C2.35 4.33 0.7 4.66 -1 5 C-1 4.01 -1 3.02 -1 2 C-3.31 2 -5.62 2 -8 2 C-8.33 2.99 -8.66 3.98 -9 5 C-11.0625 6.1875 -11.0625 6.1875 -13 7 C-13.66 6.34 -14.32 5.68 -15 5 C-10.85613244 -0.52515675 -6.76047754 -1.28825289 0 0 Z " fill="#5869E0" transform="translate(339,106)"/>
<path d="M0 0 C2.16419412 4.32838824 2.20068706 5.49742351 1 10 C-2.02544883 11.51272442 -4.73048121 11.54194209 -8 11 C-12.90757012 9.1000588 -17.03774249 7.44338627 -20 3 C-18.35 2.67 -16.7 2.34 -15 2 C-14.67 3.65 -14.34 5.3 -14 7 C-12.04200486 7.33531415 -10.08359226 7.66819143 -8.125 8 C-7.03445313 8.185625 -5.94390625 8.37125 -4.8203125 8.5625 C-2.14628036 9.05109708 -2.14628036 9.05109708 0 9 C0 6.03 0 3.06 0 0 Z " fill="#596DCC" transform="translate(431,165)"/>
<path d="M0 0 C0.33 0 0.66 0 1 0 C1.25 7.625 1.25 7.625 -1 11 C-4.52907575 12.45108011 -8.20161125 12.02197245 -11.953125 11.87890625 C-12.61334656 11.85529526 -13.27356812 11.83168427 -13.95379639 11.80735779 C-16.052769 11.7310719 -18.15133949 11.64689847 -20.25 11.5625 C-21.67706397 11.5092441 -23.10414728 11.45650396 -24.53125 11.40429688 C-28.02107733 11.27550501 -31.51058798 11.13963981 -35 11 C-35 10.67 -35 10.34 -35 10 C-23.78 9.67 -12.56 9.34 -1 9 C-0.67 6.03 -0.34 3.06 0 0 Z " fill="#536ADD" transform="translate(179,110)"/>
<path d="M0 0 C0.33 0 0.66 0 1 0 C1.66 2.64 2.32 5.28 3 8 C4.32 7.01 5.64 6.02 7 5 C7.99 6.485 7.99 6.485 9 8 C12.58357241 8.25015873 12.58357241 8.25015873 16 8 C13.63237059 10.36762941 12.29940167 10.58455766 9.0625 11.25 C8.18722656 11.44078125 7.31195313 11.6315625 6.41015625 11.828125 C4 12 4 12 1 10 C-0.1577506 6.52674819 -0.06866652 3.63932552 0 0 Z " fill="#546BE1" transform="translate(436,165)"/>
<path d="M0 0 C1.98 0.99 1.98 0.99 4 2 C4.11608726 5.27053517 4.18720711 8.5405418 4.25 11.8125 C4.28351563 12.74126953 4.31703125 13.67003906 4.3515625 14.62695312 C4.36445313 15.51962891 4.37734375 16.41230469 4.390625 17.33203125 C4.4220459 18.56530151 4.4220459 18.56530151 4.45410156 19.82348633 C4 22 4 22 1.97558594 23.79174805 C0.9976709 24.38983276 0.9976709 24.38983276 0 25 C0.495 23.515 0.495 23.515 1 22 C1.09232973 20.46959123 1.13067608 18.93553364 1.1328125 17.40234375 C1.13410156 16.51869141 1.13539063 15.63503906 1.13671875 14.72460938 C1.13285156 13.80486328 1.12898438 12.88511719 1.125 11.9375 C1.13080078 10.55208008 1.13080078 10.55208008 1.13671875 9.13867188 C1.13542969 8.25630859 1.13414062 7.37394531 1.1328125 6.46484375 C1.13168457 5.656521 1.13055664 4.84819824 1.12939453 4.01538086 C1.12664883 1.92914156 1.12664883 1.92914156 0 0 Z " fill="#4B64C3" transform="translate(282,107)"/>
<path d="M0 0 C0 0.33 0 0.66 0 1 C-0.80824219 1.06058594 -1.61648438 1.12117187 -2.44921875 1.18359375 C-4.05216797 1.30927734 -4.05216797 1.30927734 -5.6875 1.4375 C-6.74324219 1.51871094 -7.79898438 1.59992188 -8.88671875 1.68359375 C-11.95038057 1.93427636 -11.95038057 1.93427636 -14.70703125 2.59765625 C-17 3 -17 3 -20 2 C-21.33106622 1.65772583 -22.66400079 1.32248257 -24 1 C-17.5533879 -3.2977414 -7.42555176 -1.16479243 0 0 Z " fill="#5F73E6" transform="translate(653,161)"/>
<path d="M0 0 C1.32 0.99 2.64 1.98 4 3 C4 2.34 4 1.68 4 1 C5.65 1 7.3 1 9 1 C8.67 1.99 8.34 2.98 8 4 C6.29296875 4.765625 6.29296875 4.765625 4.1875 5.25 C3.50042969 5.42015625 2.81335938 5.5903125 2.10546875 5.765625 C-0.19499821 6.02170666 -1.80629727 5.69015367 -4 5 C-3.34 4.67 -2.68 4.34 -2 4 C-0.86649466 1.98330173 -0.86649466 1.98330173 0 0 Z " fill="#5167E7" transform="translate(222,171)"/>
<path d="M0 0 C0.99 0.33 1.98 0.66 3 1 C2.01 1.495 2.01 1.495 1 2 C1.33 3.65 1.66 5.3 2 7 C2.99 7.33 3.98 7.66 5 8 C5 11.63 5 15.26 5 19 C3.24082094 16.3612314 2.07080116 14.03921171 0.875 11.125 C0.34519531 9.86042969 0.34519531 9.86042969 -0.1953125 8.5703125 C-1.03800311 5.87861142 -1.22458468 3.80242624 -1 1 C-0.67 0.67 -0.34 0.34 0 0 Z " fill="#5468D3" transform="translate(191,107)"/>
<path d="M0 0 C0.66 0 1.32 0 2 0 C2.6168993 9.9389332 2.6168993 9.9389332 0.4375 13.6875 C-2.822954 15.44312908 -5.35645778 15.28027248 -9 15 C-9 14.67 -9 14.34 -9 14 C-7.5459375 13.814375 -7.5459375 13.814375 -6.0625 13.625 C-5.051875 13.41875 -4.04125 13.2125 -3 13 C-2.67 12.34 -2.34 11.68 -2 11 C-1.34 11 -0.68 11 0 11 C0 7.37 0 3.74 0 0 Z " fill="#4D5FCE" transform="translate(52,161)"/>
<path d="M0 0 C0.99 0 1.98 0 3 0 C3.66 0.99 4.32 1.98 5 3 C5.99 3 6.98 3 8 3 C9 9.625 9 9.625 9 13 C7.4941255 11.21326795 5.9954515 9.42046492 4.5 7.625 C3.6646875 6.62726563 2.829375 5.62953125 1.96875 4.6015625 C0 2 0 2 0 0 Z " fill="#556EDC" transform="translate(56,135)"/>
<path d="M0 0 C0 3.19610552 -0.54671542 4.41717626 -2 7.1875 C-2.37125 7.90292969 -2.7425 8.61835937 -3.125 9.35546875 C-3.41375 9.89816406 -3.7025 10.44085938 -4 11 C-4.66 11 -5.32 11 -6 11 C-6 11.66 -6 12.32 -6 13 C-5.34 13.33 -4.68 13.66 -4 14 C-5.98 14.33 -7.96 14.66 -10 15 C-8.6199929 10.9749793 -6.74702347 8.23179232 -4 5 C-3.2575 4.071875 -2.515 3.14375 -1.75 2.1875 C-1.1725 1.465625 -0.595 0.74375 0 0 Z " fill="#556AD7" transform="translate(89,109)"/>
<path d="M0 0 C1.52771194 1.94436066 2.86781952 3.69096694 3.84375 5.97265625 C5.26006328 8.45598933 6.65738168 9.28564515 9.125 10.6875 C10.42914196 11.43703355 11.72478297 12.20224795 13 13 C13 13.33 13 13.66 13 14 C11.35 14 9.7 14 8 14 C8 13.34 8 12.68 8 12 C7.34 12 6.68 12 6 12 C6 11.34 6 10.68 6 10 C3.525 9.01 3.525 9.01 1 8 C0.67 5.36 0.34 2.72 0 0 Z " fill="#586DD4" transform="translate(755,147)"/>
<path d="M0 0 C0.33 0 0.66 0 1 0 C1.48192771 7.22891566 1.48192771 7.22891566 -0.5625 10.5 C-3.82028019 12.50478781 -6.24782833 12.28862859 -10 12 C-10 11.67 -10 11.34 -10 11 C-6.535 10.505 -6.535 10.505 -3 10 C-3 8.02 -3 6.04 -3 4 C-2.01 4.33 -1.02 4.66 0 5 C0 3.35 0 1.7 0 0 Z " fill="#5C6FD7" transform="translate(510,165)"/>
<path d="M0 0 C1.33483847 2.66967695 1.31719454 5.17246924 1.5234375 8.125 C1.87974572 10.40355237 1.87974572 10.40355237 5 12 C7.0492094 12.45139459 7.0492094 12.45139459 9.1875 12.625 C10.445625 12.74875 11.70375 12.8725 13 13 C13 13.33 13 13.66 13 14 C4.01297031 14.7717869 4.01297031 14.7717869 0.375 12 C-1.46248356 7.99094495 -1.36540847 5.38490159 -1 1 C-0.67 0.67 -0.34 0.34 0 0 Z " fill="#5262C7" transform="translate(475,108)"/>
<path d="M0 0 C0.33 0 0.66 0 1 0 C1.125 5.75 1.125 5.75 0 8 C-0.06950541 9.54023996 -0.08452357 11.08334988 -0.0625 12.625 C-0.05347656 13.44226563 -0.04445313 14.25953125 -0.03515625 15.1015625 C-0.02355469 15.72804687 -0.01195312 16.35453125 0 17 C-0.99 17.33 -1.98 17.66 -3 18 C-3.42765417 11.58518742 -1.85743168 6.11404596 0 0 Z " fill="#5866C3" transform="translate(742,126)"/>
<path d="M0 0 C0.680625 -0.02578125 1.36125 -0.0515625 2.0625 -0.078125 C4 0.25 4 0.25 7 3.25 C2.05 3.25 -2.9 3.25 -8 3.25 C-6.33255594 -0.08488811 -3.39287558 0.07711081 0 0 Z " fill="#636FD6" transform="translate(98,105.75)"/>
<path d="M0 0 C0.33 0 0.66 0 1 0 C1 2.97 1 5.94 1 9 C5.39828259 11.1991413 8.18550592 11.51855059 13 12 C13 12.33 13 12.66 13 13 C11.39620659 13.05416188 9.79188594 13.09286638 8.1875 13.125 C7.29417969 13.14820312 6.40085937 13.17140625 5.48046875 13.1953125 C3 13 3 13 0 11 C-0.29296875 8.3984375 -0.29296875 8.3984375 -0.1875 5.375 C-0.16042969 4.37210937 -0.13335938 3.36921875 -0.10546875 2.3359375 C-0.07066406 1.56507812 -0.03585937 0.79421875 0 0 Z " fill="#5164C0" transform="translate(628,109)"/>
<path d="M0 0 C2.57833439 2.57833439 3.3761471 5.10325781 4.6875 8.5 C5.14511719 9.6653125 5.60273438 10.830625 6.07421875 12.03125 C7 15 7 15 6 17 C2.40476401 11.26884891 0.37035409 6.78982507 0 0 Z " fill="#5365C7" transform="translate(360,151)"/>
<path d="M0 0 C0.66 0 1.32 0 2 0 C2 0.66 2 1.32 2 2 C2.66 2 3.32 2 4 2 C4 1.34 4 0.68 4 0 C4.66 0 5.32 0 6 0 C6.125 5.75 6.125 5.75 5 8 C4.01 7.67 3.02 7.34 2 7 C0.8125 3.4375 0.8125 3.4375 0 0 Z " fill="#5970E5" transform="translate(344,153)"/>
<path d="M0 0 C0.66 0 1.32 0 2 0 C2 0.66 2 1.32 2 2 C2.66 2 3.32 2 4 2 C4 3.65 4 5.3 4 7 C0.37 6.01 -3.26 5.02 -7 4 C-7 3.67 -7 3.34 -7 3 C-1.25 2.875 -1.25 2.875 1 4 C0.67 2.68 0.34 1.36 0 0 Z " fill="#596FDE" transform="translate(438,144)"/>
<path d="M0 0 C1.2065625 0.0309375 1.2065625 0.0309375 2.4375 0.0625 C3.4375 3.0625 3.4375 3.0625 2.5 5.25 C1.9740625 6.1471875 1.9740625 6.1471875 1.4375 7.0625 C0.7775 7.0625 0.1175 7.0625 -0.5625 7.0625 C-1.5525 5.0825 -2.5425 3.1025 -3.5625 1.0625 C-2.5625 0.0625 -2.5625 0.0625 0 0 Z " fill="#5173FC" transform="translate(43.5625,108.9375)"/>
<path d="M0 0 C1.53266582 3.06533164 1.10276471 6.26754272 1.0625 9.625 C1.05798828 10.33140625 1.05347656 11.0378125 1.04882812 11.765625 C1.03703875 13.51045275 1.01910324 15.255237 1 17 C0.01 16.34 -0.98 15.68 -2 15 C-1.85973717 12.68715544 -1.71264442 10.37472409 -1.5625 8.0625 C-1.48128906 6.77472656 -1.40007813 5.48695313 -1.31640625 4.16015625 C-1 1 -1 1 0 0 Z " fill="#5168EC" transform="translate(755,130)"/>
<path d="M0 0 C2.97 0 5.94 0 9 0 C8.67 0.99 8.34 1.98 8 3 C5.69 3.33 3.38 3.66 1 4 C0.67 2.68 0.34 1.36 0 0 Z " fill="#4760E7" transform="translate(273,130)"/>
<path d="M0 0 C3.78155989 1.26051996 4.25618367 2.56446606 6.25 5.9375 C6.79140625 6.83339844 7.3328125 7.72929688 7.890625 8.65234375 C8.25671875 9.42707031 8.6228125 10.20179687 9 11 C8.67 11.66 8.34 12.32 8 13 C6.84604289 11.58994275 5.70212534 10.17166542 4.5625 8.75 C3.92441406 7.96109375 3.28632812 7.1721875 2.62890625 6.359375 C1.09494695 4.13752508 0.42869754 2.63256518 0 0 Z " fill="#5969CC" transform="translate(38,110)"/>
<path d="M0 0 C5.09958109 2.2155947 8.98461329 4.0999966 12 9 C12 9.99 12 10.98 12 12 C11.34 12 10.68 12 10 12 C9.649375 11.0925 9.29875 10.185 8.9375 9.25 C6.45238781 5.08142471 4.29804263 4.10847374 0 2 C0 1.34 0 0.68 0 0 Z " fill="#5C6EC8" transform="translate(451,138)"/>
<path d="M0 0 C3.3 0 6.6 0 10 0 C10 0.99 10 1.98 10 3 C6.37 2.67 2.74 2.34 -1 2 C-0.67 1.34 -0.34 0.68 0 0 Z " fill="#5F6FDC" transform="translate(710,106)"/>
<path d="M0 0 C4.75 0.75 4.75 0.75 7 3 C3.91190305 4.76462683 2.76687864 5 -1 5 C-0.67 3.35 -0.34 1.7 0 0 Z " fill="#596EE1" transform="translate(588,170)"/>
<path d="M0 0 C0.95465783 2.16967689 1.14401212 3.56328793 0.3984375 5.82421875 C-0.35870385 7.5684743 -1.17609198 9.28627131 -2 11 C-3.4606285 8.35261084 -4 7.10551666 -4 4 C-3.01 4 -2.02 4 -1 4 C-0.67 2.68 -0.34 1.36 0 0 Z " fill="#5368DF" transform="translate(328,138)"/>
<path d="M0 0 C0.66 0.33 1.32 0.66 2 1 C1.75 2.875 1.75 2.875 1 5 C-1.0625 6.25 -1.0625 6.25 -3 7 C-3.66 6.34 -4.32 5.68 -5 5 C-3.35 3.35 -1.7 1.7 0 0 Z " fill="#5063E6" transform="translate(329,106)"/>
<path d="M0 0 C0.66 0.33 1.32 0.66 2 1 C3.1577506 4.47325181 3.06866652 7.36067448 3 11 C2.01 11.33 1.02 11.66 0 12 C-0.33 11.01 -0.66 10.02 -1 9 C-0.67 8.34 -0.34 7.68 0 7 C0.04022391 4.6670134 0.04320247 2.33293334 0 0 Z " fill="#5266DB" transform="translate(573,162)"/>
<path d="M0 0 C2.64836661 3.12988781 4.0048268 6.0193072 5 10 C4.625 12.375 4.625 12.375 4 14 C1.01520806 9.52281208 0 5.36175907 0 0 Z " fill="#576ECE" transform="translate(685,122)"/>
<path d="M0 0 C0.66 0.99 1.32 1.98 2 3 C1.34 3 0.68 3 0 3 C0 3.66 0 4.32 0 5 C0.99 5.66 1.98 6.32 3 7 C0.36 7 -2.28 7 -5 7 C-4.67 6.01 -4.34 5.02 -4 4 C-3.01 4 -2.02 4 -1 4 C-0.67 2.68 -0.34 1.36 0 0 Z " fill="#4F6EF2" transform="translate(279,168)"/>
<path d="M0 0 C0.556875 0.350625 1.11375 0.70125 1.6875 1.0625 C4.55378499 2.22450743 6.04631017 1.69955812 9 1 C9.66 1.33 10.32 1.66 11 2 C9.8125 3.5625 9.8125 3.5625 8 5 C5.5 4.9375 5.5 4.9375 3 4 C1.1875 1.9375 1.1875 1.9375 0 0 Z " fill="#576BD2" transform="translate(66,149)"/>
<path d="M0 0 C0.66 0 1.32 0 2 0 C2 0.99 2 1.98 2 3 C1.34 3 0.68 3 0 3 C-0.103125 4.11375 -0.20625 5.2275 -0.3125 6.375 C-0.539375 7.57125 -0.76625 8.7675 -1 10 C-1.99 10.66 -2.98 11.32 -4 12 C-3.33501617 7.61110675 -1.81242323 4.0188515 0 0 Z " fill="#5A6CD1" transform="translate(313,138)"/>
<path d="M0 0 C2.64 0 5.28 0 8 0 C8.33 0.99 8.66 1.98 9 3 C8.01 3 7.02 3 6 3 C5.67 3.66 5.34 4.32 5 5 C5 4.01 5 3.02 5 2 C4.01 2.33 3.02 2.66 2 3 C1.34 2.67 0.68 2.34 0 2 C0 1.34 0 0.68 0 0 Z " fill="#6172DC" transform="translate(274,106)"/>
<path d="M0 0 C0.33 0.66 0.66 1.32 1 2 C1.99 2.33 2.98 2.66 4 3 C4.33 3.66 4.66 4.32 5 5 C6.89533342 5.46523063 6.89533342 5.46523063 9.0625 5.625 C10.361875 5.74875 11.66125 5.8725 13 6 C13 6.33 13 6.66 13 7 C4.88277512 7.62440191 4.88277512 7.62440191 1.4375 5.1875 C0 3 0 3 0 0 Z " fill="#5665C6" transform="translate(707,169)"/>
<path d="M0 0 C2.76223278 2.76223278 2.57856291 5.20706617 3 9 C2.01 9.33 1.02 9.66 0 10 C-1.2380014 6.42355152 -0.74926071 3.66305234 0 0 Z " fill="#5069D8" transform="translate(771,163)"/>
<path d="M0 0 C0.66 0 1.32 0 2 0 C1.21681311 3.91593446 -0.39179858 7.36406635 -2 11 C-2.66 11 -3.32 11 -4 11 C-3.52269162 9.5410574 -3.04308958 8.08286504 -2.5625 6.625 C-2.29566406 5.81289062 -2.02882812 5.00078125 -1.75390625 4.1640625 C-1 2 -1 2 0 0 Z " fill="#5B6FCD" transform="translate(231,132)"/>
<path d="M0 0 C4.75481646 0.57634139 7.97048212 2.55068521 12 5 C10.68 5.33 9.36 5.66 8 6 C8 5.34 8 4.68 8 4 C5.69 3.67 3.38 3.34 1 3 C0.67 2.01 0.34 1.02 0 0 Z " fill="#5B6DCF" transform="translate(665,107)"/>
<path d="M0 0 C3.01357974 2.87659884 4.95458757 4.84198305 5.125 9.1875 C5.08375 10.115625 5.0425 11.04375 5 12 C2.65085508 9.65085508 2.26859643 8.04320554 1.375 4.875 C1.11460937 3.96492187 0.85421875 3.05484375 0.5859375 2.1171875 C0.39257812 1.41851562 0.19921875 0.71984375 0 0 Z " fill="#5264D3" transform="translate(210,160)"/>
<path d="M0 0 C0.33 0 0.66 0 1 0 C1 3.3 1 6.6 1 10 C-0.65 10.33 -2.3 10.66 -4 11 C-3.67 10.34 -3.34 9.68 -3 9 C-2.34 9 -1.68 9 -1 9 C-0.67 6.03 -0.34 3.06 0 0 Z " fill="#5167CE" transform="translate(175,136)"/>
<path d="M0 0 C0.33 0.99 0.66 1.98 1 3 C-0.40445835 5.2636564 -2.1967913 7.0208685 -4 9 C-4.99 8.67 -5.98 8.34 -7 8 C-6.34 8 -5.68 8 -5 8 C-4.731875 7.4225 -4.46375 6.845 -4.1875 6.25 C-2.98280141 3.9674132 -1.59201885 2.0262058 0 0 Z " fill="#576CD5" transform="translate(78,124)"/>
<path d="M0 0 C2.97 0 5.94 0 9 0 C9.33 0.99 9.66 1.98 10 3 C3.375 2.25 3.375 2.25 0 0 Z " fill="#5B71EA" transform="translate(551,107)"/>
<path d="M0 0 C0.33 0 0.66 0 1 0 C1.22036864 3.85645121 0.60355101 6.49223216 -1 10 C-2.32 9.67 -3.64 9.34 -5 9 C-4.360625 8.071875 -3.72125 7.14375 -3.0625 6.1875 C-0.91377907 3.15780057 -0.91377907 3.15780057 0 0 Z " fill="#5366D2" transform="translate(674,146)"/>
<path d="M0 0 C0.99 0.33 1.98 0.66 3 1 C3.94921875 3.28515625 3.94921875 3.28515625 4.6875 6.0625 C4.93886719 6.98160156 5.19023437 7.90070313 5.44921875 8.84765625 C5.63097656 9.55792969 5.81273437 10.26820313 6 11 C2.54704946 7.75460386 1.48263287 4.4478986 0 0 Z " fill="#5463CD" transform="translate(209,122)"/>
<path d="M0 0 C2.375 1.1875 2.375 1.1875 3.375 3.1875 C0.735 3.1875 -1.905 3.1875 -4.625 3.1875 C-4.955 2.1975 -5.285 1.2075 -5.625 0.1875 C-2.625 -0.8125 -2.625 -0.8125 0 0 Z " fill="#4E60E3" transform="translate(51.625,106.8125)"/>
<path d="M0 0 C0.33 0.99 0.66 1.98 1 3 C1.99 3.66 2.98 4.32 4 5 C-1.53846154 4.38461538 -1.53846154 4.38461538 -3.875 2.4375 C-4.24625 1.963125 -4.6175 1.48875 -5 1 C-3.35 0.67 -1.7 0.34 0 0 Z " fill="#5366D8" transform="translate(757,168)"/>
<path d="M0 0 C0.33 0.99 0.66 1.98 1 3 C1.66 3 2.32 3 3 3 C3 3.99 3 4.98 3 6 C2.34 6 1.68 6 1 6 C0.67 6.99 0.34 7.98 0 9 C-0.87890625 2.84765625 -0.87890625 2.84765625 -1 1 C-0.67 0.67 -0.34 0.34 0 0 Z " fill="#536EEE" transform="translate(778,165)"/>
<path d="M0 0 C1.125 1.6875 1.125 1.6875 2 4 C1.125 6.75 1.125 6.75 0 9 C-0.99 8.67 -1.98 8.34 -3 8 C-2.34 7.01 -1.68 6.02 -1 5 C-0.61500109 3.34450469 -0.27206865 1.6777567 0 0 Z " fill="#5467E0" transform="translate(605,152)"/>
<path d="M0 0 C2.97 0.495 2.97 0.495 6 1 C5.01 2.485 5.01 2.485 4 4 C2.68 3.67 1.36 3.34 0 3 C0 2.01 0 1.02 0 0 Z M0 4 C0.66 4 1.32 4 2 4 C1.67 4.66 1.34 5.32 1 6 C0.67 5.34 0.34 4.68 0 4 Z " fill="#5C76F3" transform="translate(132,106)"/>
</svg>
